<svg xmlns="http://www.w3.org/2000/svg" xmlns:xlink="http://www.w3.org/1999/xlink" width="800" zoomAndPan="magnify" viewBox="0 0 600 449.999984" height="600" preserveAspectRatio="xMidYMid meet" version="1.0"><defs><g/><clipPath id="6b46c546a2"><path d="M 153.269531 98 L 446.519531 98 L 446.519531 422 L 153.269531 422 Z M 153.269531 98 " clip-rule="nonzero"/></clipPath></defs><rect x="-60" width="720" fill="#ffffff" y="-44.999998" height="539.99998" fill-opacity="1"/><rect x="-60" width="720" fill="#ffffff" y="-44.999998" height="539.99998" fill-opacity="1"/><g clip-path="url(#6b46c546a2)"><path fill="#000000" d="M 415.269531 130.65625 L 433.003906 161.015625 L 433.003906 407.898438 L 204.738281 407.898438 C 193.804688 407.898438 184.074219 404.4375 177.378906 399.261719 C 170.652344 394.089844 167.003906 387.488281 167.003906 380.324219 C 167.003906 373.164062 170.652344 366.59375 177.378906 361.398438 C 184.082031 356.222656 193.804688 352.757812 204.738281 352.757812 L 406.445312 352.757812 C 410.609375 352.757812 415.269531 351.707031 415.269531 346.105469 Z M 197.824219 112.339844 L 401.683594 112.339844 L 401.683594 339.132812 L 204.738281 339.132812 C 189.945312 339.132812 177.085938 344.574219 167.003906 352.355469 L 167.003906 137.84375 C 167.003906 124.195312 180.109375 112.339844 197.824219 112.339844 Z M 407.734375 98.691406 L 197.824219 98.691406 C 173.839844 98.691406 153.398438 115.667969 153.398438 137.84375 L 153.398438 382.746094 C 153.398438 393.789062 160.230469 403.203125 169.074219 410.019531 C 178.449219 417.257812 190.992188 421.496094 204.738281 421.496094 L 439.804688 421.496094 C 443.5625 421.496094 446.585938 418.433594 446.585938 414.679688 L 446.585938 159.164062 C 446.585938 157.957031 446.292969 156.777344 445.671875 155.730469 L 414.347656 102.070312 C 412.375 98.632812 411.03125 98.691406 407.734375 98.691406 Z M 407.734375 98.691406 " fill-opacity="1" fill-rule="evenodd"/></g><path fill="#000000" d="M 223.757812 373.488281 C 214.652344 373.488281 214.652344 387.144531 223.757812 387.144531 L 404.335938 387.144531 C 408.089844 387.144531 411.140625 384.078125 411.140625 380.304688 C 411.140625 376.550781 408.082031 373.488281 404.335938 373.488281 Z M 223.757812 373.488281 " fill-opacity="1" fill-rule="nonzero"/><path fill="#000000" d="M 284.722656 166.699219 C 280.570312 166.699219 277.214844 168.335938 277.214844 171.6875 C 277.214844 181.527344 275.71875 185.394531 272.179688 186.84375 C 268.640625 188.320312 264.863281 186.65625 257.921875 179.679688 C 255.542969 177.320312 252.03125 178.527344 249.078125 181.480469 L 242.035156 188.5625 C 239.09375 191.484375 237.882812 195.023438 240.234375 197.382812 C 247.207031 204.359375 248.867188 208.132812 247.390625 211.648438 C 245.945312 215.191406 242.089844 216.691406 232.261719 216.691406 C 228.90625 216.691406 227.277344 220.042969 227.277344 224.199219 L 227.277344 234.195312 C 227.277344 238.359375 228.902344 241.703125 232.261719 241.703125 C 242.089844 241.703125 245.945312 243.207031 247.390625 246.746094 C 248.867188 250.289062 247.210938 254.042969 240.234375 261.019531 C 237.882812 263.402344 239.089844 266.917969 242.035156 269.84375 L 249.078125 276.917969 C 252.03125 279.875 255.542969 281.074219 257.921875 278.71875 C 264.894531 271.75 268.644531 270.082031 272.179688 271.558594 C 275.71875 273.003906 277.214844 276.835938 277.214844 286.710938 C 277.214844 290.058594 280.570312 291.695312 284.722656 291.695312 L 294.71875 291.695312 C 298.871094 291.695312 302.214844 290.058594 302.214844 286.710938 C 302.214844 276.839844 303.722656 273.003906 307.257812 271.558594 C 310.765625 270.082031 314.542969 271.742188 321.507812 278.71875 C 323.867188 281.074219 327.378906 279.875 330.332031 276.917969 L 337.40625 269.84375 C 340.347656 266.917969 341.554688 263.402344 339.195312 261.019531 C 332.230469 254.046875 330.574219 250.289062 332.019531 246.746094 C 333.484375 243.214844 337.320312 241.703125 347.179688 241.703125 C 350.523438 241.703125 352.164062 238.359375 352.164062 234.195312 L 352.164062 224.199219 C 352.164062 220.042969 350.527344 216.691406 347.179688 216.691406 C 337.320312 216.691406 333.484375 215.1875 332.039062 211.648438 C 330.574219 208.132812 332.230469 204.359375 339.195312 197.382812 C 341.554688 195.023438 340.351562 191.484375 337.40625 188.5625 L 330.332031 181.480469 C 327.378906 178.527344 323.867188 177.320312 321.507812 179.679688 C 314.542969 186.65625 310.796875 188.320312 307.257812 186.84375 C 303.714844 185.394531 302.214844 181.527344 302.214844 171.6875 C 302.214844 168.339844 298.871094 166.699219 294.71875 166.699219 Z M 289.707031 210.757812 C 299.996094 210.757812 308.328125 219.101562 308.328125 229.398438 C 308.328125 239.671875 299.996094 248.011719 289.707031 248.011719 C 279.417969 248.011719 271.109375 239.671875 271.109375 229.398438 C 271.082031 219.101562 279.417969 210.757812 289.707031 210.757812 Z M 289.707031 210.757812 " fill-opacity="1" fill-rule="nonzero"/><g fill="#000000" fill-opacity="1"><g transform="translate(45.000007, 64.474887)"><g><path d="M 41.25 -6.328125 C 39.613281 -3.984375 37.328125 -2.234375 34.390625 -1.078125 C 31.460938 0.078125 28.054688 0.65625 24.171875 0.65625 C 20.234375 0.65625 16.738281 -0.265625 13.6875 -2.109375 C 10.644531 -3.953125 8.285156 -6.578125 6.609375 -9.984375 C 4.941406 -13.390625 4.085938 -17.332031 4.046875 -21.8125 L 4.046875 -26.03125 C 4.046875 -33.300781 5.738281 -38.9375 9.125 -42.9375 C 12.519531 -46.9375 17.289062 -48.9375 23.4375 -48.9375 C 28.476562 -48.9375 32.535156 -47.648438 35.609375 -45.078125 C 38.679688 -42.503906 40.5625 -38.851562 41.25 -34.125 L 34.875 -34.125 C 33.6875 -40.507812 29.882812 -43.703125 23.46875 -43.703125 C 19.207031 -43.703125 15.976562 -42.203125 13.78125 -39.203125 C 11.582031 -36.210938 10.46875 -31.875 10.4375 -26.1875 L 10.4375 -22.25 C 10.4375 -16.832031 11.675781 -12.523438 14.15625 -9.328125 C 16.632812 -6.140625 19.984375 -4.546875 24.203125 -4.546875 C 26.585938 -4.546875 28.675781 -4.8125 30.46875 -5.34375 C 32.257812 -5.875 33.742188 -6.769531 34.921875 -8.03125 L 34.921875 -18.859375 L 23.734375 -18.859375 L 23.734375 -24.046875 L 41.25 -24.046875 Z M 41.25 -6.328125 "/></g></g><g transform="translate(91.256108, 64.474887)"><g><path d="M 26.796875 0 C 26.441406 -0.707031 26.148438 -1.96875 25.921875 -3.78125 C 23.078125 -0.820312 19.675781 0.65625 15.71875 0.65625 C 12.175781 0.65625 9.269531 -0.34375 7 -2.34375 C 4.738281 -4.34375 3.609375 -6.878906 3.609375 -9.953125 C 3.609375 -13.679688 5.03125 -16.578125 7.875 -18.640625 C 10.71875 -20.710938 14.710938 -21.75 19.859375 -21.75 L 25.828125 -21.75 L 25.828125 -24.5625 C 25.828125 -26.707031 25.1875 -28.414062 23.90625 -29.6875 C 22.625 -30.957031 20.734375 -31.59375 18.234375 -31.59375 C 16.046875 -31.59375 14.210938 -31.039062 12.734375 -29.9375 C 11.253906 -28.832031 10.515625 -27.492188 10.515625 -25.921875 L 4.34375 -25.921875 C 4.34375 -27.710938 4.976562 -29.441406 6.25 -31.109375 C 7.519531 -32.785156 9.242188 -34.109375 11.421875 -35.078125 C 13.597656 -36.054688 15.988281 -36.546875 18.59375 -36.546875 C 22.726562 -36.546875 25.96875 -35.507812 28.3125 -33.4375 C 30.65625 -31.375 31.875 -28.53125 31.96875 -24.90625 L 31.96875 -8.390625 C 31.96875 -5.097656 32.382812 -2.476562 33.21875 -0.53125 L 33.21875 0 Z M 16.609375 -4.671875 C 18.535156 -4.671875 20.359375 -5.164062 22.078125 -6.15625 C 23.804688 -7.15625 25.054688 -8.453125 25.828125 -10.046875 L 25.828125 -17.40625 L 21.015625 -17.40625 C 13.503906 -17.40625 9.75 -15.207031 9.75 -10.8125 C 9.75 -8.882812 10.390625 -7.378906 11.671875 -6.296875 C 12.953125 -5.210938 14.597656 -4.671875 16.609375 -4.671875 Z M 16.609375 -4.671875 "/></g></g><g transform="translate(128.194671, 64.474887)"><g><path d="M 11.3125 0 L 5.171875 0 L 5.171875 -50.9375 L 11.3125 -50.9375 Z M 11.3125 0 "/></g></g><g transform="translate(144.674443, 64.474887)"><g><path d="M 26.796875 0 C 26.441406 -0.707031 26.148438 -1.96875 25.921875 -3.78125 C 23.078125 -0.820312 19.675781 0.65625 15.71875 0.65625 C 12.175781 0.65625 9.269531 -0.34375 7 -2.34375 C 4.738281 -4.34375 3.609375 -6.878906 3.609375 -9.953125 C 3.609375 -13.679688 5.03125 -16.578125 7.875 -18.640625 C 10.71875 -20.710938 14.710938 -21.75 19.859375 -21.75 L 25.828125 -21.75 L 25.828125 -24.5625 C 25.828125 -26.707031 25.1875 -28.414062 23.90625 -29.6875 C 22.625 -30.957031 20.734375 -31.59375 18.234375 -31.59375 C 16.046875 -31.59375 14.210938 -31.039062 12.734375 -29.9375 C 11.253906 -28.832031 10.515625 -27.492188 10.515625 -25.921875 L 4.34375 -25.921875 C 4.34375 -27.710938 4.976562 -29.441406 6.25 -31.109375 C 7.519531 -32.785156 9.242188 -34.109375 11.421875 -35.078125 C 13.597656 -36.054688 15.988281 -36.546875 18.59375 -36.546875 C 22.726562 -36.546875 25.96875 -35.507812 28.3125 -33.4375 C 30.65625 -31.375 31.875 -28.53125 31.96875 -24.90625 L 31.96875 -8.390625 C 31.96875 -5.097656 32.382812 -2.476562 33.21875 -0.53125 L 33.21875 0 Z M 16.609375 -4.671875 C 18.535156 -4.671875 20.359375 -5.164062 22.078125 -6.15625 C 23.804688 -7.15625 25.054688 -8.453125 25.828125 -10.046875 L 25.828125 -17.40625 L 21.015625 -17.40625 C 13.503906 -17.40625 9.75 -15.207031 9.75 -10.8125 C 9.75 -8.882812 10.390625 -7.378906 11.671875 -6.296875 C 12.953125 -5.210938 14.597656 -4.671875 16.609375 -4.671875 Z M 16.609375 -4.671875 "/></g></g><g transform="translate(181.613006, 64.474887)"><g><path d="M 10.78125 -31.53125 C 13.5 -34.875 17.035156 -36.546875 21.390625 -36.546875 C 28.972656 -36.546875 32.796875 -32.265625 32.859375 -23.703125 L 32.859375 0 L 26.71875 0 L 26.71875 -23.734375 C 26.695312 -26.328125 26.101562 -28.238281 24.9375 -29.46875 C 23.78125 -30.707031 21.976562 -31.328125 19.53125 -31.328125 C 17.539062 -31.328125 15.789062 -30.796875 14.28125 -29.734375 C 12.78125 -28.679688 11.613281 -27.289062 10.78125 -25.5625 L 10.78125 0 L 4.640625 0 L 4.640625 -50.9375 L 10.78125 -50.9375 Z M 10.78125 -31.53125 "/></g></g><g transform="translate(219.015788, 64.474887)"><g/></g><g transform="translate(235.827145, 64.474887)"><g><path d="M 39.59375 -48.28125 L 39.59375 -15.453125 C 39.570312 -10.898438 38.140625 -7.175781 35.296875 -4.28125 C 32.453125 -1.382812 28.597656 0.238281 23.734375 0.59375 L 22.046875 0.65625 C 16.765625 0.65625 12.550781 -0.765625 9.40625 -3.609375 C 6.269531 -6.460938 4.679688 -10.390625 4.640625 -15.390625 L 4.640625 -48.28125 L 10.9375 -48.28125 L 10.9375 -15.578125 C 10.9375 -12.085938 11.898438 -9.375 13.828125 -7.4375 C 15.753906 -5.507812 18.492188 -4.546875 22.046875 -4.546875 C 25.648438 -4.546875 28.40625 -5.503906 30.3125 -7.421875 C 32.226562 -9.347656 33.1875 -12.054688 33.1875 -15.546875 L 33.1875 -48.28125 Z M 39.59375 -48.28125 "/></g></g><g transform="translate(279.861626, 64.474887)"><g><path d="M 25.53125 -9.515625 C 25.53125 -11.171875 24.90625 -12.457031 23.65625 -13.375 C 22.40625 -14.289062 20.226562 -15.082031 17.125 -15.75 C 14.019531 -16.414062 11.554688 -17.210938 9.734375 -18.140625 C 7.910156 -19.066406 6.5625 -20.171875 5.6875 -21.453125 C 4.8125 -22.734375 4.375 -24.257812 4.375 -26.03125 C 4.375 -28.96875 5.617188 -31.453125 8.109375 -33.484375 C 10.597656 -35.523438 13.773438 -36.546875 17.640625 -36.546875 C 21.703125 -36.546875 25 -35.492188 27.53125 -33.390625 C 30.0625 -31.285156 31.328125 -28.597656 31.328125 -25.328125 L 25.171875 -25.328125 C 25.171875 -27.015625 24.457031 -28.460938 23.03125 -29.671875 C 21.601562 -30.890625 19.804688 -31.5 17.640625 -31.5 C 15.410156 -31.5 13.664062 -31.007812 12.40625 -30.03125 C 11.144531 -29.0625 10.515625 -27.796875 10.515625 -26.234375 C 10.515625 -24.742188 11.097656 -23.625 12.265625 -22.875 C 13.441406 -22.125 15.554688 -21.40625 18.609375 -20.71875 C 21.671875 -20.039062 24.148438 -19.222656 26.046875 -18.265625 C 27.953125 -17.316406 29.363281 -16.171875 30.28125 -14.828125 C 31.207031 -13.492188 31.671875 -11.867188 31.671875 -9.953125 C 31.671875 -6.742188 30.382812 -4.171875 27.8125 -2.234375 C 25.25 -0.304688 21.925781 0.65625 17.84375 0.65625 C 14.96875 0.65625 12.421875 0.148438 10.203125 -0.859375 C 7.992188 -1.878906 6.265625 -3.300781 5.015625 -5.125 C 3.773438 -6.945312 3.15625 -8.921875 3.15625 -11.046875 L 9.28125 -11.046875 C 9.394531 -8.984375 10.21875 -7.347656 11.75 -6.140625 C 13.289062 -4.941406 15.320312 -4.34375 17.84375 -4.34375 C 20.15625 -4.34375 22.015625 -4.8125 23.421875 -5.75 C 24.828125 -6.6875 25.53125 -7.941406 25.53125 -9.515625 Z M 25.53125 -9.515625 "/></g></g><g transform="translate(314.876997, 64.474887)"><g><path d="M 19.53125 0.65625 C 14.664062 0.65625 10.707031 -0.9375 7.65625 -4.125 C 4.601562 -7.320312 3.078125 -11.59375 3.078125 -16.9375 L 3.078125 -18.078125 C 3.078125 -21.628906 3.753906 -24.800781 5.109375 -27.59375 C 6.472656 -30.394531 8.375 -32.585938 10.8125 -34.171875 C 13.257812 -35.753906 15.910156 -36.546875 18.765625 -36.546875 C 23.429688 -36.546875 27.054688 -35.007812 29.640625 -31.9375 C 32.222656 -28.863281 33.515625 -24.460938 33.515625 -18.734375 L 33.515625 -16.1875 L 9.21875 -16.1875 C 9.300781 -12.644531 10.332031 -9.785156 12.3125 -7.609375 C 14.289062 -5.429688 16.804688 -4.34375 19.859375 -4.34375 C 22.023438 -4.34375 23.859375 -4.785156 25.359375 -5.671875 C 26.867188 -6.554688 28.1875 -7.726562 29.3125 -9.1875 L 33.0625 -6.265625 C 30.050781 -1.648438 25.539062 0.65625 19.53125 0.65625 Z M 18.765625 -31.5 C 16.285156 -31.5 14.207031 -30.597656 12.53125 -28.796875 C 10.851562 -26.992188 9.816406 -24.46875 9.421875 -21.21875 L 27.390625 -21.21875 L 27.390625 -21.6875 C 27.210938 -24.800781 26.367188 -27.210938 24.859375 -28.921875 C 23.359375 -30.640625 21.328125 -31.5 18.765625 -31.5 Z M 18.765625 -31.5 "/></g></g><g transform="translate(350.853964, 64.474887)"><g><path d="M 21.984375 -30.375 C 21.054688 -30.53125 20.050781 -30.609375 18.96875 -30.609375 C 14.945312 -30.609375 12.21875 -28.894531 10.78125 -25.46875 L 10.78125 0 L 4.640625 0 L 4.640625 -35.875 L 10.609375 -35.875 L 10.703125 -31.734375 C 12.722656 -34.941406 15.578125 -36.546875 19.265625 -36.546875 C 20.460938 -36.546875 21.367188 -36.390625 21.984375 -36.078125 Z M 21.984375 -30.375 "/></g></g><g transform="translate(373.832801, 64.474887)"><g/></g><g transform="translate(390.644158, 64.474887)"><g><path d="M 41.25 -6.328125 C 39.613281 -3.984375 37.328125 -2.234375 34.390625 -1.078125 C 31.460938 0.078125 28.054688 0.65625 24.171875 0.65625 C 20.234375 0.65625 16.738281 -0.265625 13.6875 -2.109375 C 10.644531 -3.953125 8.285156 -6.578125 6.609375 -9.984375 C 4.941406 -13.390625 4.085938 -17.332031 4.046875 -21.8125 L 4.046875 -26.03125 C 4.046875 -33.300781 5.738281 -38.9375 9.125 -42.9375 C 12.519531 -46.9375 17.289062 -48.9375 23.4375 -48.9375 C 28.476562 -48.9375 32.535156 -47.648438 35.609375 -45.078125 C 38.679688 -42.503906 40.5625 -38.851562 41.25 -34.125 L 34.875 -34.125 C 33.6875 -40.507812 29.882812 -43.703125 23.46875 -43.703125 C 19.207031 -43.703125 15.976562 -42.203125 13.78125 -39.203125 C 11.582031 -36.210938 10.46875 -31.875 10.4375 -26.1875 L 10.4375 -22.25 C 10.4375 -16.832031 11.675781 -12.523438 14.15625 -9.328125 C 16.632812 -6.140625 19.984375 -4.546875 24.203125 -4.546875 C 26.585938 -4.546875 28.675781 -4.8125 30.46875 -5.34375 C 32.257812 -5.875 33.742188 -6.769531 34.921875 -8.03125 L 34.921875 -18.859375 L 23.734375 -18.859375 L 23.734375 -24.046875 L 41.25 -24.046875 Z M 41.25 -6.328125 "/></g></g><g transform="translate(436.900258, 64.474887)"><g><path d="M 26.796875 -3.546875 C 24.398438 -0.742188 20.894531 0.65625 16.28125 0.65625 C 12.457031 0.65625 9.546875 -0.453125 7.546875 -2.671875 C 5.546875 -4.890625 4.535156 -8.175781 4.515625 -12.53125 L 4.515625 -35.875 L 10.640625 -35.875 L 10.640625 -12.703125 C 10.640625 -7.265625 12.851562 -4.546875 17.28125 -4.546875 C 21.957031 -4.546875 25.070312 -6.289062 26.625 -9.78125 L 26.625 -35.875 L 32.765625 -35.875 L 32.765625 0 L 26.921875 0 Z M 26.796875 -3.546875 "/></g></g><g transform="translate(474.336199, 64.474887)"><g><path d="M 11.3125 0 L 5.171875 0 L 5.171875 -35.875 L 11.3125 -35.875 Z M 4.671875 -45.390625 C 4.671875 -46.390625 4.972656 -47.226562 5.578125 -47.90625 C 6.191406 -48.59375 7.09375 -48.9375 8.28125 -48.9375 C 9.476562 -48.9375 10.382812 -48.59375 11 -47.90625 C 11.625 -47.226562 11.9375 -46.390625 11.9375 -45.390625 C 11.9375 -44.398438 11.625 -43.570312 11 -42.90625 C 10.382812 -42.238281 9.476562 -41.90625 8.28125 -41.90625 C 7.09375 -41.90625 6.191406 -42.238281 5.578125 -42.90625 C 4.972656 -43.570312 4.671875 -44.398438 4.671875 -45.390625 Z M 4.671875 -45.390625 "/></g></g><g transform="translate(490.81597, 64.474887)"><g><path d="M 3.15625 -18.234375 C 3.15625 -23.742188 4.457031 -28.171875 7.0625 -31.515625 C 9.664062 -34.867188 13.082031 -36.546875 17.3125 -36.546875 C 21.507812 -36.546875 24.832031 -35.109375 27.28125 -32.234375 L 27.28125 -50.9375 L 33.421875 -50.9375 L 33.421875 0 L 27.78125 0 L 27.484375 -3.84375 C 25.035156 -0.84375 21.617188 0.65625 17.234375 0.65625 C 13.085938 0.65625 9.703125 -1.039062 7.078125 -4.4375 C 4.460938 -7.84375 3.15625 -12.285156 3.15625 -17.765625 Z M 9.28125 -17.546875 C 9.28125 -13.472656 10.117188 -10.285156 11.796875 -7.984375 C 13.484375 -5.691406 15.804688 -4.546875 18.765625 -4.546875 C 22.660156 -4.546875 25.5 -6.289062 27.28125 -9.78125 L 27.28125 -26.265625 C 25.445312 -29.640625 22.628906 -31.328125 18.828125 -31.328125 C 15.828125 -31.328125 13.484375 -30.164062 11.796875 -27.84375 C 10.117188 -25.53125 9.28125 -22.097656 9.28125 -17.546875 Z M 9.28125 -17.546875 "/></g></g><g transform="translate(529.114032, 64.474887)"><g><path d="M 19.53125 0.65625 C 14.664062 0.65625 10.707031 -0.9375 7.65625 -4.125 C 4.601562 -7.320312 3.078125 -11.59375 3.078125 -16.9375 L 3.078125 -18.078125 C 3.078125 -21.628906 3.753906 -24.800781 5.109375 -27.59375 C 6.472656 -30.394531 8.375 -32.585938 10.8125 -34.171875 C 13.257812 -35.753906 15.910156 -36.546875 18.765625 -36.546875 C 23.429688 -36.546875 27.054688 -35.007812 29.640625 -31.9375 C 32.222656 -28.863281 33.515625 -24.460938 33.515625 -18.734375 L 33.515625 -16.1875 L 9.21875 -16.1875 C 9.300781 -12.644531 10.332031 -9.785156 12.3125 -7.609375 C 14.289062 -5.429688 16.804688 -4.34375 19.859375 -4.34375 C 22.023438 -4.34375 23.859375 -4.785156 25.359375 -5.671875 C 26.867188 -6.554688 28.1875 -7.726562 29.3125 -9.1875 L 33.0625 -6.265625 C 30.050781 -1.648438 25.539062 0.65625 19.53125 0.65625 Z M 18.765625 -31.5 C 16.285156 -31.5 14.207031 -30.597656 12.53125 -28.796875 C 10.851562 -26.992188 9.816406 -24.46875 9.421875 -21.21875 L 27.390625 -21.21875 L 27.390625 -21.6875 C 27.210938 -24.800781 26.367188 -27.210938 24.859375 -28.921875 C 23.359375 -30.640625 21.328125 -31.5 18.765625 -31.5 Z M 18.765625 -31.5 "/></g></g></g></svg>