<svg xmlns="http://www.w3.org/2000/svg" xmlns:xlink="http://www.w3.org/1999/xlink" width="800" zoomAndPan="magnify" viewBox="0 0 600 449.999984" height="600" preserveAspectRatio="xMidYMid meet" version="1.0"><defs><g/><clipPath id="5127a3db4f"><path d="M 110 364 L 194 364 L 194 375.382812 L 110 375.382812 Z M 110 364 " clip-rule="nonzero"/></clipPath><clipPath id="f74b2a2ca2"><path d="M 109.898438 363 L 195 363 L 195 375.382812 L 109.898438 375.382812 Z M 109.898438 363 " clip-rule="nonzero"/></clipPath><clipPath id="4017ca4cf1"><path d="M 139 346 L 172 346 L 172 375.382812 L 139 375.382812 Z M 139 346 " clip-rule="nonzero"/></clipPath><clipPath id="ac5289a00b"><path d="M 416 159 L 490.148438 159 L 490.148438 240 L 416 240 Z M 416 159 " clip-rule="nonzero"/></clipPath><clipPath id="11c5154418"><path d="M 415 157 L 490.148438 157 L 490.148438 241 L 415 241 Z M 415 157 " clip-rule="nonzero"/></clipPath><clipPath id="c918c1d085"><path d="M 293 115.132812 L 421 115.132812 L 421 170 L 293 170 Z M 293 115.132812 " clip-rule="nonzero"/></clipPath><clipPath id="259f79bc87"><path d="M 291 115.132812 L 422 115.132812 L 422 172 L 291 172 Z M 291 115.132812 " clip-rule="nonzero"/></clipPath></defs><rect x="-60" width="720" fill="#ffffff" y="-44.999998" height="539.99998" fill-opacity="1"/><rect x="-60" width="720" fill="#ffffff" y="-44.999998" height="539.99998" fill-opacity="1"/><rect x="-60" width="720" fill="#ffffff" y="-44.999998" height="539.99998" fill-opacity="1"/><g clip-path="url(#5127a3db4f)"><path fill="#000000" d="M 193.167969 373.570312 L 192.617188 364.757812 L 110.003906 367.511719 L 110.003906 375.21875 Z M 193.167969 373.570312 " fill-opacity="1" fill-rule="evenodd"/></g><g clip-path="url(#f74b2a2ca2)"><path stroke-linecap="butt" transform="matrix(0.212343, 0, 0, 0.21231, 307.724752, 125.3565)" fill="none" stroke-linejoin="miter" d="M -539.489214 1169.108498 L -542.083042 1127.600862 L -931.138784 1140.571998 L -931.138784 1176.872781 Z M -539.489214 1169.108498 " stroke="#000000" stroke-width="1" stroke-opacity="1" stroke-miterlimit="4"/></g><path fill="#000000" d="M 165.078125 366.414062 L 154.0625 350.445312 L 150.207031 347.691406 L 143.597656 355.398438 L 140.296875 374.121094 L 170.035156 374.121094 Z M 165.078125 366.414062 " fill-opacity="1" fill-rule="evenodd"/><g clip-path="url(#4017ca4cf1)"><path stroke-linecap="butt" transform="matrix(0.212343, 0, 0, 0.21231, 307.724752, 125.3565)" fill="none" stroke-linejoin="miter" d="M -671.774421 1135.401942 L -723.650973 1060.18775 L -741.807766 1047.216614 L -772.933697 1083.517397 L -788.478266 1171.702725 L -648.429973 1171.702725 Z M -671.774421 1135.401942 " stroke="#000000" stroke-width="1" stroke-opacity="1" stroke-miterlimit="4"/></g><path stroke-linecap="butt" transform="matrix(0.212343, 0, 0, 0.21231, 307.724752, 125.3565)" fill-opacity="1" fill="#000000" fill-rule="evenodd" stroke-linejoin="miter" d="M -687.337387 1109.404473 L -671.774421 1039.378736 L -671.774421 992.682645 L -676.962076 961.551918 L -669.180593 935.628044 L -658.805283 927.845362 L -627.679352 917.468453 L -591.365766 914.874226 L -549.864525 1008.248009 L -570.615145 1023.813372 L -580.990456 1049.737246 L -614.710214 1119.781382 L -614.710214 1158.676392 C -625.1959 1173.671394 -641.347536 1163.110497 -656.468999 1157.167693 Z M -687.337387 1109.404473 " stroke="#000000" stroke-width="1" stroke-opacity="1" stroke-miterlimit="4"/><path stroke-linecap="butt" transform="matrix(0.212343, 0, 0, 0.21231, 307.724752, 125.3565)" fill-opacity="1" fill="#000000" fill-rule="evenodd" stroke-linejoin="miter" d="M -593.959593 917.486852 C -593.959593 917.486852 -561.306799 900.192004 -539.489214 876.255197 C -526.832807 862.364122 -503.175628 837.084206 -503.175628 837.084206 L -482.425007 813.73616 L -453.304234 784.132531 L -435.736111 756.681559 L -425.3608 748.898877 L -389.047214 730.739287 L -352.752024 709.985469 L -298.281645 686.655822 L -259.374231 655.525095 L -212.685334 595.876267 L -191.934714 572.528221 L -153.0273 541.397494 L -85.587783 502.502484 L -70.024817 445.429484 L -54.461852 416.892984 L -31.117403 388.374883 L -2.5853 367.621065 L 20.759148 359.838383 L 72.617304 354.649929 L 80.398787 614.017459 L 46.679028 614.017459 L 15.571493 632.177049 L -33.711231 665.902004 L -95.963093 707.391241 C -95.963093 707.391241 -126.849877 729.19379 -143.884518 737.160459 C -153.432011 741.612963 -173.906692 747.059 -173.906692 747.059 L -194.362978 753.480172 L -210.091507 769.652696 C -210.091507 769.652696 -232.920869 786.818753 -246.405093 790.388115 C -251.408789 791.731225 -261.968058 790.388115 -261.968058 790.388115 L -295.687817 808.547706 L -329.407576 837.084206 L -368.314989 865.620706 L -430.548456 896.733034 L -474.643525 930.457988 L -516.144766 956.400261 L -534.301559 977.13568 L -568.021318 1005.67218 Z M -593.959593 917.486852 " stroke="#000000" stroke-width="1" stroke-opacity="1" stroke-miterlimit="4"/><path stroke-linecap="butt" transform="matrix(0.212343, 0, 0, 0.21231, 307.724752, 125.3565)" fill-opacity="1" fill="#000000" fill-rule="evenodd" stroke-linejoin="miter" d="M 54.460511 357.244156 L 121.900028 388.374883 L 210.090166 489.531348 L 267.154373 554.387029 C 267.154373 554.387029 299.108121 576.00559 311.249442 590.687812 C 325.046397 607.3939 342.375373 647.760812 342.375373 647.760812 L 352.750683 663.307777 L 373.648472 712.598095 L 391.658097 743.728822 L 394.251925 777.435377 L 383.876614 808.566105 L 355.344511 829.319923 L 326.812408 834.508377 L 300.874132 842.27266 L 261.966718 852.649569 L 219.711243 861.517779 L 172.580844 868.380522 L 123.132556 869.300461 L 77.804959 870.80916 L 20.740752 886.374524 L 10.383838 894.157205 L 5.196183 914.911024 L -2.5853 951.211806 L -2.5853 990.125215 C -2.5853 990.125215 14.982823 1016.085887 14.927635 1030.860103 C 14.909239 1036.802907 7.79001 1047.179816 7.79001 1047.179816 L 0.00852772 1060.150953 L -12.96061 1060.150953 L -54.461852 1021.255943 L -75.525203 964.182943 C -75.525203 964.182943 -84.134503 933.493786 -92.762199 920.412257 C -99.623885 910.016949 -119.307541 894.157205 -119.307541 894.157205 L -127.089024 873.403387 L -134.870507 847.461115 L -119.307541 837.102604 L -77.8063 816.348786 L -59.649507 805.971877 L -59.649507 821.537241 L -18.148265 813.754559 L 59.648166 790.406514 C 59.648166 790.406514 95.189123 778.5945 111.524718 769.652696 C 118.055277 766.083333 123.261328 760.434909 129.681511 756.681559 C 142.043583 749.46924 154.920741 742.772085 168.588925 738.540367 C 183.6552 733.84868 215.277821 730.757685 215.277821 730.757685 L 150.432132 697.032731 L 88.18027 655.525095 L 25.928408 575.122448 Z M 54.460511 357.244156 " stroke="#000000" stroke-width="1" stroke-opacity="1" stroke-miterlimit="4"/><path stroke-linecap="butt" transform="matrix(0.212343, 0, 0, 0.21231, 307.724752, 125.3565)" fill-opacity="1" fill="#000000" fill-rule="evenodd" stroke-linejoin="miter" d="M 168.588925 492.125575 L 223.059304 473.965984 L 264.560546 453.212166 L 319.030925 435.052575 L 342.375373 429.864121 L 383.858219 406.534474 L 422.011399 399.818921 L 472.21392 381.51214 L 508.361943 356.636996 L 549.863184 323.5376 L 542.081701 178.279272 L 357.938339 139.365863 L 334.59389 170.496591 L 298.280304 186.061954 L 269.748201 206.815772 L 225.653132 240.522328 L 178.964235 276.84151 L 114.118546 323.519202 L 51.885079 365.026838 Z M 168.588925 492.125575 " stroke="#000000" stroke-width="1" stroke-opacity="1" stroke-miterlimit="4"/><g clip-path="url(#ac5289a00b)"><path fill="#000000" d="M 416.222656 194.59375 L 416.863281 200.964844 L 423.933594 213.316406 L 428.890625 220.476562 L 433.847656 230.941406 L 442.109375 237.546875 C 442.109375 237.546875 446.222656 239.96875 448.167969 239.199219 C 450.773438 238.167969 452.574219 232.039062 452.574219 232.039062 L 458.082031 223.230469 L 463.589844 212.765625 L 467.996094 203.957031 L 469.648438 197.347656 L 472.953125 193.492188 C 472.953125 193.492188 478.355469 191.339844 480.519531 189.089844 C 481.683594 187.875 483.40625 184.539062 483.40625 184.539062 L 487.269531 178.074219 C 487.074219 176.640625 486.070312 176.621094 484.824219 177.027344 L 489.472656 172.566406 L 490.023438 169.8125 C 489.097656 167.433594 487.3125 171.054688 485.917969 171.960938 L 482.027344 174.113281 L 485.617188 169.265625 L 488.921875 163.757812 C 489.070312 162.203125 488.214844 162.40625 487.324219 162.664062 L 479.929688 170.988281 L 482.863281 160.453125 C 482.703125 158.648438 481.839844 158.671875 480.355469 160.308594 C 479.359375 162.695312 478.089844 166.996094 477.367188 167.46875 L 476.15625 168.503906 L 472.898438 171.359375 C 472.898438 171.359375 469.5 172.835938 468.5 174.28125 C 466.917969 176.570312 467.308594 180.4375 466.628906 182.417969 C 465.738281 185.019531 465.242188 189.085938 465.242188 189.085938 L 463.039062 190.1875 L 455.878906 201.753906 L 451.472656 207.261719 L 448.167969 210.5625 L 447.066406 213.316406 L 444.863281 212.214844 C 444.863281 212.214844 444.210938 205.3125 442.660156 202.304688 C 441.527344 200.109375 437.703125 196.796875 437.703125 196.796875 L 437.152344 190.1875 L 435.5 183.582031 Z M 416.222656 194.59375 " fill-opacity="1" fill-rule="evenodd"/></g><g clip-path="url(#11c5154418)"><path stroke-linecap="butt" transform="matrix(0.212343, 0, 0, 0.21231, 307.724752, 125.3565)" fill="none" stroke-linejoin="miter" d="M 510.95577 326.113429 L 513.972704 356.121831 L 547.269356 414.298757 L 570.613805 448.023711 L 593.958253 497.314029 L 632.865667 528.426358 C 632.865667 528.426358 652.236592 539.833598 661.39777 536.20904 C 673.667862 531.351763 682.148391 502.484085 682.148391 502.484085 L 708.086667 460.994848 L 734.024943 411.70453 L 754.775563 370.215292 L 762.557046 339.084565 L 778.120012 320.924974 C 778.120012 320.924974 803.561597 310.787249 813.752948 300.189555 C 819.234938 294.467536 827.347548 278.754982 827.347548 278.754982 L 845.541133 248.30501 C 844.621336 241.552659 839.893579 241.460665 834.025274 243.374138 L 855.916443 222.362737 L 858.510271 209.391601 C 854.150433 198.186747 845.743488 215.242411 839.176138 219.510927 L 820.853781 229.648652 L 837.75965 206.815772 L 853.322616 180.8735 C 854.021661 173.550787 849.99295 174.507524 845.798676 175.721843 L 810.975161 214.929632 L 824.790512 165.308136 C 824.036279 156.807902 819.970776 156.918295 812.980318 164.627381 C 808.289354 175.869033 802.310673 196.126084 798.907424 198.352336 L 793.204683 203.228011 L 777.862468 216.677516 C 777.862468 216.677516 761.858 223.632253 757.14864 230.439799 C 749.698284 241.221481 751.537878 259.436269 748.336984 268.764447 C 744.14271 281.018031 741.806425 300.171156 741.806425 300.171156 L 731.431115 305.359611 L 697.711356 359.838383 L 676.960736 385.780656 L 661.39777 401.327621 L 656.210115 414.298757 L 645.834805 409.110302 C 645.834805 409.110302 642.762683 376.599667 635.459494 362.43261 C 630.124672 352.092499 612.115046 336.490338 612.115046 336.490338 L 609.521218 305.359611 L 601.739736 274.247282 Z M 510.95577 326.113429 " stroke="#000000" stroke-width="1" stroke-opacity="1" stroke-miterlimit="4"/></g><path stroke-linecap="butt" transform="matrix(0.212343, 0, 0, 0.21231, 307.724752, 125.3565)" fill-opacity="1" fill="#000000" fill-rule="evenodd" stroke-linejoin="miter" d="M 539.543061 306.794715 C 539.543061 306.794715 595.393136 302.21342 614.708874 284.624191 C 618.148915 281.4964 619.896529 271.653055 619.896529 271.653055 C 619.896529 271.653055 631.449179 277.651056 635.459494 274.247282 C 637.42786 272.572994 635.459494 266.464601 635.459494 266.464601 C 635.459494 266.464601 640.978276 267.752515 643.240977 266.464601 C 647.619211 263.980766 651.02246 253.493464 651.02246 253.493464 C 651.02246 253.493464 656.522846 263.520797 661.39777 263.870373 C 665.70242 264.183152 669.473588 259.749048 671.773081 256.087691 C 676.464045 248.636188 676.960736 230.163818 676.960736 230.163818 L 684.742218 214.598454 C 684.742218 214.598454 698.281631 209.446797 702.899012 204.221545 C 710.330971 195.794906 715.86815 173.090818 715.86815 173.090818 L 723.649632 170.496591 L 736.61877 178.279272 L 741.806425 154.931227 C 741.806425 154.931227 740.187583 132.006353 736.61877 121.224671 C 731.394323 105.438523 724.606221 89.302797 713.274322 77.122808 C 702.163174 65.182003 685.882767 59.386389 671.773081 51.198934 C 660.735516 44.777762 650.010683 37.491847 638.053322 33.039343 C 630.58457 30.261128 622.674316 27.6853 614.708874 27.850889 C 601.298233 28.12687 587.262131 31.236263 575.80146 38.227798 C 564.819084 44.906553 558.950779 57.656904 549.863184 66.745899 C 540.77559 75.834894 528.799832 82.219269 521.331081 92.688171 C 513.696765 103.414657 505.768115 129.007353 505.768115 129.007353 L 500.58046 160.119682 Z M 539.543061 306.794715 " stroke="#000000" stroke-width="1" stroke-opacity="1" stroke-miterlimit="4"/><g clip-path="url(#c918c1d085)"><path fill="#000000" d="M 420.664062 167.84375 L 414.023438 151.644531 L 409.617188 147.238281 L 405.761719 145.035156 L 402.457031 139.527344 C 402.457031 139.527344 400.808594 136.453125 399.703125 135.121094 C 397.789062 132.824219 393.09375 129.066406 393.09375 129.066406 L 383.179688 121.355469 L 377.121094 115.296875 L 372.164062 115.296875 L 363.902344 116.398438 L 354.539062 117.5 L 349.582031 118.601562 L 341.871094 120.804688 L 331.40625 125.761719 L 327 127.964844 L 323.144531 128.515625 C 323.144531 128.515625 322.394531 126.554688 321.492188 126.738281 L 312.683594 128.515625 L 307.175781 126.863281 L 301.667969 124.109375 L 299.464844 124.109375 L 298.914062 126.863281 L 308.277344 131.820312 L 308.828125 132.917969 L 296.710938 130.167969 C 296.710938 130.167969 293.445312 130.570312 293.109375 131.851562 C 292.828125 132.929688 295.058594 134.570312 295.058594 134.570312 L 307.175781 137.875 L 307.175781 138.425781 L 293.957031 145.035156 L 293.40625 147.238281 L 295.609375 148.339844 L 307.175781 144.484375 L 305.523438 145.035156 L 300.566406 149.441406 L 296.839844 153.132812 C 296.839844 153.132812 297.074219 155.027344 297.8125 155.371094 C 298.851562 155.855469 301.117188 154.394531 301.117188 154.394531 L 306.074219 151.640625 L 312.132812 146.6875 L 317.089844 146.6875 L 314.886719 149.992188 L 312.683594 153.292969 L 312.683594 156.046875 C 312.683594 156.046875 313.527344 159.710938 315.011719 159.875 C 316.265625 160.011719 317.636719 157.148438 317.636719 157.148438 L 318.1875 153.84375 L 324.246094 147.789062 L 326.449219 141.179688 L 337.339844 138.070312 L 346.828125 136.519531 L 354.539062 136.222656 L 365.554688 135.546875 L 372.941406 135.0625 L 374.917969 140.628906 L 384.28125 154.394531 L 396.398438 169.816406 Z M 420.664062 167.84375 " fill-opacity="1" fill-rule="evenodd"/></g><g clip-path="url(#259f79bc87)"><path stroke-linecap="butt" transform="matrix(0.212343, 0, 0, 0.21231, 307.724752, 125.3565)" fill="none" stroke-linejoin="miter" d="M 531.871954 200.118618 L 500.598856 123.818899 L 479.848235 103.065081 L 461.691442 92.688171 L 446.128477 66.745899 C 446.128477 66.745899 438.36539 52.266063 433.159339 45.992081 C 424.145328 35.173601 402.033408 17.47398 402.033408 17.47398 L 355.344511 -18.845202 L 326.812408 -47.381702 L 303.467959 -47.381702 L 264.560546 -42.193247 L 220.465477 -37.004793 L 197.121028 -31.816338 L 160.807442 -21.439429 L 111.524718 1.908616 L 90.774097 12.285525 L 72.617304 14.879752 C 72.617304 14.879752 69.085284 5.643567 64.835821 6.50831 L 23.352976 14.879752 L -2.5853 7.097071 L -28.523576 -5.874066 L -38.898886 -5.874066 L -41.492714 7.097071 L 2.602355 30.445116 L 5.196183 35.615172 L -51.868024 22.662434 C -51.868024 22.662434 -67.24703 24.557508 -68.829081 30.592306 C -70.153589 35.670368 -59.649507 43.397854 -59.649507 43.397854 L -2.5853 58.963217 L -2.5853 61.557444 L -64.837162 92.688171 L -67.43099 103.065081 L -57.055679 108.253535 L -2.5853 90.093944 L -10.366783 92.688171 L -33.711231 113.44199 L -51.260958 130.828832 C -51.260958 130.828832 -50.157202 139.752238 -46.680369 141.37133 C -41.787049 143.652778 -31.117403 136.771636 -31.117403 136.771636 L -7.772955 123.8005 L 20.759148 100.470853 L 44.103597 100.470853 L 33.728286 116.036217 L 23.352976 131.583182 L 23.352976 144.554318 C 23.352976 144.554318 27.326499 161.812369 34.316956 162.585117 C 40.222053 163.229075 46.679028 149.742773 46.679028 149.742773 L 49.272856 134.177409 L 77.804959 105.659308 L 88.18027 74.528581 L 139.468151 59.883156 L 184.15189 52.578842 L 220.465477 51.180535 L 272.342028 47.997547 L 307.128751 45.716099 L 316.437097 71.934353 L 360.532166 136.771636 L 417.596373 209.41 Z M 531.871954 200.118618 " stroke="#000000" stroke-width="1" stroke-opacity="1" stroke-miterlimit="4"/></g><g fill="#000000" fill-opacity="1"><g transform="translate(66.941982, 67.092193)"><g><path d="M 43.59375 -6.6875 C 41.863281 -4.21875 39.453125 -2.367188 36.359375 -1.140625 C 33.265625 0.0859375 29.660156 0.703125 25.546875 0.703125 C 21.390625 0.703125 17.695312 -0.269531 14.46875 -2.21875 C 11.25 -4.175781 8.753906 -6.953125 6.984375 -10.546875 C 5.222656 -14.140625 4.320312 -18.3125 4.28125 -23.0625 L 4.28125 -27.515625 C 4.28125 -35.191406 6.070312 -41.144531 9.65625 -45.375 C 13.238281 -49.601562 18.28125 -51.71875 24.78125 -51.71875 C 30.101562 -51.71875 34.382812 -50.359375 37.625 -47.640625 C 40.875 -44.921875 42.863281 -41.0625 43.59375 -36.0625 L 36.859375 -36.0625 C 35.597656 -42.8125 31.582031 -46.1875 24.8125 -46.1875 C 20.300781 -46.1875 16.882812 -44.601562 14.5625 -41.4375 C 12.238281 -38.269531 11.0625 -33.6875 11.03125 -27.6875 L 11.03125 -23.515625 C 11.03125 -17.785156 12.335938 -13.234375 14.953125 -9.859375 C 17.578125 -6.484375 21.117188 -4.796875 25.578125 -4.796875 C 28.097656 -4.796875 30.304688 -5.078125 32.203125 -5.640625 C 34.097656 -6.203125 35.664062 -7.148438 36.90625 -8.484375 L 36.90625 -19.9375 L 25.09375 -19.9375 L 25.09375 -25.40625 L 43.59375 -25.40625 Z M 43.59375 -6.6875 "/></g></g><g transform="translate(115.828485, 67.092193)"><g><path d="M 20.640625 0.703125 C 15.503906 0.703125 11.320312 -0.984375 8.09375 -4.359375 C 4.875 -7.734375 3.265625 -12.25 3.265625 -17.90625 L 3.265625 -19.09375 C 3.265625 -22.851562 3.976562 -26.210938 5.40625 -29.171875 C 6.84375 -32.128906 8.851562 -34.441406 11.4375 -36.109375 C 14.019531 -37.773438 16.816406 -38.609375 19.828125 -38.609375 C 24.765625 -38.609375 28.597656 -36.984375 31.328125 -33.734375 C 34.054688 -30.492188 35.421875 -25.847656 35.421875 -19.796875 L 35.421875 -17.09375 L 9.734375 -17.09375 C 9.828125 -13.363281 10.921875 -10.347656 13.015625 -8.046875 C 15.109375 -5.742188 17.765625 -4.59375 20.984375 -4.59375 C 23.273438 -4.59375 25.210938 -5.054688 26.796875 -5.984375 C 28.390625 -6.921875 29.785156 -8.160156 30.984375 -9.703125 L 34.9375 -6.625 C 31.757812 -1.738281 26.992188 0.703125 20.640625 0.703125 Z M 19.828125 -33.296875 C 17.210938 -33.296875 15.015625 -32.34375 13.234375 -30.4375 C 11.460938 -28.53125 10.367188 -25.859375 9.953125 -22.421875 L 28.9375 -22.421875 L 28.9375 -22.921875 C 28.757812 -26.210938 27.875 -28.765625 26.28125 -30.578125 C 24.695312 -32.390625 22.546875 -33.296875 19.828125 -33.296875 Z M 19.828125 -33.296875 "/></g></g><g transform="translate(153.851321, 67.092193)"><g><path d="M 13.703125 -47.09375 L 13.703125 -37.921875 L 20.78125 -37.921875 L 20.78125 -32.90625 L 13.703125 -32.90625 L 13.703125 -9.390625 C 13.703125 -7.867188 14.015625 -6.726562 14.640625 -5.96875 C 15.273438 -5.207031 16.351562 -4.828125 17.875 -4.828125 C 18.625 -4.828125 19.648438 -4.96875 20.953125 -5.25 L 20.953125 0 C 19.242188 0.46875 17.585938 0.703125 15.984375 0.703125 C 13.085938 0.703125 10.898438 -0.171875 9.421875 -1.921875 C 7.953125 -3.679688 7.21875 -6.171875 7.21875 -9.390625 L 7.21875 -32.90625 L 0.3125 -32.90625 L 0.3125 -37.921875 L 7.21875 -37.921875 L 7.21875 -47.09375 Z M 13.703125 -47.09375 "/></g></g><g transform="translate(177.295817, 67.092193)"><g><path d="M 13.703125 -47.09375 L 13.703125 -37.921875 L 20.78125 -37.921875 L 20.78125 -32.90625 L 13.703125 -32.90625 L 13.703125 -9.390625 C 13.703125 -7.867188 14.015625 -6.726562 14.640625 -5.96875 C 15.273438 -5.207031 16.351562 -4.828125 17.875 -4.828125 C 18.625 -4.828125 19.648438 -4.96875 20.953125 -5.25 L 20.953125 0 C 19.242188 0.46875 17.585938 0.703125 15.984375 0.703125 C 13.085938 0.703125 10.898438 -0.171875 9.421875 -1.921875 C 7.953125 -3.679688 7.21875 -6.171875 7.21875 -9.390625 L 7.21875 -32.90625 L 0.3125 -32.90625 L 0.3125 -37.921875 L 7.21875 -37.921875 L 7.21875 -47.09375 Z M 13.703125 -47.09375 "/></g></g><g transform="translate(200.740312, 67.092193)"><g><path d="M 11.953125 0 L 5.46875 0 L 5.46875 -37.921875 L 11.953125 -37.921875 Z M 4.9375 -47.96875 C 4.9375 -49.019531 5.257812 -49.90625 5.90625 -50.625 C 6.550781 -51.351562 7.503906 -51.71875 8.765625 -51.71875 C 10.023438 -51.71875 10.976562 -51.351562 11.625 -50.625 C 12.28125 -49.90625 12.609375 -49.019531 12.609375 -47.96875 C 12.609375 -46.914062 12.28125 -46.039062 11.625 -45.34375 C 10.976562 -44.644531 10.023438 -44.296875 8.765625 -44.296875 C 7.503906 -44.296875 6.550781 -44.644531 5.90625 -45.34375 C 5.257812 -46.039062 4.9375 -46.914062 4.9375 -47.96875 Z M 4.9375 -47.96875 "/></g></g><g transform="translate(218.157224, 67.092193)"><g><path d="M 11.03125 -37.921875 L 11.25 -33.15625 C 14.144531 -36.789062 17.929688 -38.609375 22.609375 -38.609375 C 30.617188 -38.609375 34.65625 -34.09375 34.71875 -25.0625 L 34.71875 0 L 28.25 0 L 28.25 -25.09375 C 28.21875 -27.820312 27.585938 -29.835938 26.359375 -31.140625 C 25.140625 -32.453125 23.234375 -33.109375 20.640625 -33.109375 C 18.535156 -33.109375 16.6875 -32.546875 15.09375 -31.421875 C 13.507812 -30.304688 12.273438 -28.835938 11.390625 -27.015625 L 11.390625 0 L 4.90625 0 L 4.90625 -37.921875 Z M 11.03125 -37.921875 "/></g></g><g transform="translate(257.757044, 67.092193)"><g><path d="M 3.359375 -19.265625 C 3.359375 -25.179688 4.722656 -29.882812 7.453125 -33.375 C 10.191406 -36.863281 13.816406 -38.609375 18.328125 -38.609375 C 22.953125 -38.609375 26.5625 -36.972656 29.15625 -33.703125 L 29.46875 -37.921875 L 35.390625 -37.921875 L 35.390625 -0.90625 C 35.390625 4 33.9375 7.863281 31.03125 10.6875 C 28.125 13.507812 24.21875 14.921875 19.3125 14.921875 C 16.570312 14.921875 13.894531 14.335938 11.28125 13.171875 C 8.664062 12.003906 6.671875 10.40625 5.296875 8.375 L 8.65625 4.484375 C 11.4375 7.921875 14.835938 9.640625 18.859375 9.640625 C 22.003906 9.640625 24.457031 8.75 26.21875 6.96875 C 27.988281 5.195312 28.875 2.695312 28.875 -0.53125 L 28.875 -3.78125 C 26.28125 -0.789062 22.738281 0.703125 18.25 0.703125 C 13.8125 0.703125 10.21875 -1.082031 7.46875 -4.65625 C 4.726562 -8.226562 3.359375 -13.097656 3.359375 -19.265625 Z M 9.875 -18.53125 C 9.875 -14.257812 10.75 -10.898438 12.5 -8.453125 C 14.257812 -6.015625 16.71875 -4.796875 19.875 -4.796875 C 23.957031 -4.796875 26.957031 -6.65625 28.875 -10.375 L 28.875 -27.6875 C 26.882812 -31.300781 23.90625 -33.109375 19.9375 -33.109375 C 16.78125 -33.109375 14.3125 -31.878906 12.53125 -29.421875 C 10.757812 -26.972656 9.875 -23.34375 9.875 -18.53125 Z M 9.875 -18.53125 "/></g></g><g transform="translate(298.022702, 67.092193)"><g/></g><g transform="translate(315.790055, 67.092193)"><g><path d="M 20.953125 -22.734375 C 15.179688 -24.398438 10.984375 -26.441406 8.359375 -28.859375 C 5.734375 -31.273438 4.421875 -34.257812 4.421875 -37.8125 C 4.421875 -41.832031 6.023438 -45.15625 9.234375 -47.78125 C 12.441406 -50.40625 16.617188 -51.71875 21.765625 -51.71875 C 25.265625 -51.71875 28.382812 -51.039062 31.125 -49.6875 C 33.875 -48.332031 36 -46.460938 37.5 -44.078125 C 39.007812 -41.703125 39.765625 -39.097656 39.765625 -36.265625 L 33.015625 -36.265625 C 33.015625 -39.347656 32.03125 -41.769531 30.0625 -43.53125 C 28.101562 -45.300781 25.335938 -46.1875 21.765625 -46.1875 C 18.441406 -46.1875 15.851562 -45.457031 14 -44 C 12.144531 -42.539062 11.21875 -40.515625 11.21875 -37.921875 C 11.21875 -35.835938 12.097656 -34.078125 13.859375 -32.640625 C 15.617188 -31.203125 18.617188 -29.882812 22.859375 -28.6875 C 27.097656 -27.5 30.414062 -26.1875 32.8125 -24.75 C 35.207031 -23.320312 36.984375 -21.648438 38.140625 -19.734375 C 39.296875 -17.816406 39.875 -15.5625 39.875 -12.96875 C 39.875 -8.832031 38.257812 -5.519531 35.03125 -3.03125 C 31.8125 -0.539062 27.503906 0.703125 22.109375 0.703125 C 18.609375 0.703125 15.335938 0.03125 12.296875 -1.3125 C 9.265625 -2.65625 6.921875 -4.492188 5.265625 -6.828125 C 3.617188 -9.171875 2.796875 -11.820312 2.796875 -14.78125 L 9.5625 -14.78125 C 9.5625 -11.695312 10.703125 -9.257812 12.984375 -7.46875 C 15.265625 -5.6875 18.304688 -4.796875 22.109375 -4.796875 C 25.660156 -4.796875 28.378906 -5.519531 30.265625 -6.96875 C 32.160156 -8.414062 33.109375 -10.390625 33.109375 -12.890625 C 33.109375 -15.390625 32.234375 -17.320312 30.484375 -18.6875 C 28.734375 -20.0625 25.554688 -21.410156 20.953125 -22.734375 Z M 20.953125 -22.734375 "/></g></g><g transform="translate(358.368622, 67.092193)"><g><path d="M 13.703125 -47.09375 L 13.703125 -37.921875 L 20.78125 -37.921875 L 20.78125 -32.90625 L 13.703125 -32.90625 L 13.703125 -9.390625 C 13.703125 -7.867188 14.015625 -6.726562 14.640625 -5.96875 C 15.273438 -5.207031 16.351562 -4.828125 17.875 -4.828125 C 18.625 -4.828125 19.648438 -4.96875 20.953125 -5.25 L 20.953125 0 C 19.242188 0.46875 17.585938 0.703125 15.984375 0.703125 C 13.085938 0.703125 10.898438 -0.171875 9.421875 -1.921875 C 7.953125 -3.679688 7.21875 -6.171875 7.21875 -9.390625 L 7.21875 -32.90625 L 0.3125 -32.90625 L 0.3125 -37.921875 L 7.21875 -37.921875 L 7.21875 -47.09375 Z M 13.703125 -47.09375 "/></g></g><g transform="translate(381.813118, 67.092193)"><g><path d="M 28.3125 0 C 27.9375 -0.75 27.632812 -2.082031 27.40625 -4 C 24.382812 -0.863281 20.785156 0.703125 16.609375 0.703125 C 12.867188 0.703125 9.800781 -0.351562 7.40625 -2.46875 C 5.007812 -4.582031 3.8125 -7.265625 3.8125 -10.515625 C 3.8125 -14.460938 5.3125 -17.523438 8.3125 -19.703125 C 11.320312 -21.890625 15.546875 -22.984375 20.984375 -22.984375 L 27.296875 -22.984375 L 27.296875 -25.96875 C 27.296875 -28.226562 26.617188 -30.03125 25.265625 -31.375 C 23.910156 -32.71875 21.910156 -33.390625 19.265625 -33.390625 C 16.953125 -33.390625 15.015625 -32.804688 13.453125 -31.640625 C 11.890625 -30.472656 11.109375 -29.0625 11.109375 -27.40625 L 4.59375 -27.40625 C 4.59375 -29.289062 5.265625 -31.113281 6.609375 -32.875 C 7.953125 -34.644531 9.773438 -36.039062 12.078125 -37.0625 C 14.378906 -38.09375 16.90625 -38.609375 19.65625 -38.609375 C 24.03125 -38.609375 27.453125 -37.515625 29.921875 -35.328125 C 32.398438 -33.148438 33.6875 -30.144531 33.78125 -26.3125 L 33.78125 -8.859375 C 33.78125 -5.378906 34.222656 -2.613281 35.109375 -0.5625 L 35.109375 0 Z M 17.5625 -4.9375 C 19.59375 -4.9375 21.519531 -5.460938 23.34375 -6.515625 C 25.164062 -7.566406 26.484375 -8.9375 27.296875 -10.625 L 27.296875 -18.390625 L 22.21875 -18.390625 C 14.269531 -18.390625 10.296875 -16.066406 10.296875 -11.421875 C 10.296875 -9.390625 10.972656 -7.800781 12.328125 -6.65625 C 13.679688 -5.507812 15.425781 -4.9375 17.5625 -4.9375 Z M 17.5625 -4.9375 "/></g></g><g transform="translate(420.852232, 67.092193)"><g><path d="M 23.234375 -32.09375 C 22.253906 -32.257812 21.191406 -32.34375 20.046875 -32.34375 C 15.796875 -32.34375 12.910156 -30.53125 11.390625 -26.90625 L 11.390625 0 L 4.90625 0 L 4.90625 -37.921875 L 11.21875 -37.921875 L 11.3125 -33.53125 C 13.4375 -36.914062 16.453125 -38.609375 20.359375 -38.609375 C 21.617188 -38.609375 22.578125 -38.445312 23.234375 -38.125 Z M 23.234375 -32.09375 "/></g></g><g transform="translate(445.137786, 67.092193)"><g><path d="M 13.703125 -47.09375 L 13.703125 -37.921875 L 20.78125 -37.921875 L 20.78125 -32.90625 L 13.703125 -32.90625 L 13.703125 -9.390625 C 13.703125 -7.867188 14.015625 -6.726562 14.640625 -5.96875 C 15.273438 -5.207031 16.351562 -4.828125 17.875 -4.828125 C 18.625 -4.828125 19.648438 -4.96875 20.953125 -5.25 L 20.953125 0 C 19.242188 0.46875 17.585938 0.703125 15.984375 0.703125 C 13.085938 0.703125 10.898438 -0.171875 9.421875 -1.921875 C 7.953125 -3.679688 7.21875 -6.171875 7.21875 -9.390625 L 7.21875 -32.90625 L 0.3125 -32.90625 L 0.3125 -37.921875 L 7.21875 -37.921875 L 7.21875 -47.09375 Z M 13.703125 -47.09375 "/></g></g><g transform="translate(468.582281, 67.092193)"><g><path d="M 20.640625 0.703125 C 15.503906 0.703125 11.320312 -0.984375 8.09375 -4.359375 C 4.875 -7.734375 3.265625 -12.25 3.265625 -17.90625 L 3.265625 -19.09375 C 3.265625 -22.851562 3.976562 -26.210938 5.40625 -29.171875 C 6.84375 -32.128906 8.851562 -34.441406 11.4375 -36.109375 C 14.019531 -37.773438 16.816406 -38.609375 19.828125 -38.609375 C 24.765625 -38.609375 28.597656 -36.984375 31.328125 -33.734375 C 34.054688 -30.492188 35.421875 -25.847656 35.421875 -19.796875 L 35.421875 -17.09375 L 9.734375 -17.09375 C 9.828125 -13.363281 10.921875 -10.347656 13.015625 -8.046875 C 15.109375 -5.742188 17.765625 -4.59375 20.984375 -4.59375 C 23.273438 -4.59375 25.210938 -5.054688 26.796875 -5.984375 C 28.390625 -6.921875 29.785156 -8.160156 30.984375 -9.703125 L 34.9375 -6.625 C 31.757812 -1.738281 26.992188 0.703125 20.640625 0.703125 Z M 19.828125 -33.296875 C 17.210938 -33.296875 15.015625 -32.34375 13.234375 -30.4375 C 11.460938 -28.53125 10.367188 -25.859375 9.953125 -22.421875 L 28.9375 -22.421875 L 28.9375 -22.921875 C 28.757812 -26.210938 27.875 -28.765625 26.28125 -30.578125 C 24.695312 -32.390625 22.546875 -33.296875 19.828125 -33.296875 Z M 19.828125 -33.296875 "/></g></g><g transform="translate(506.605117, 67.092193)"><g><path d="M 3.328125 -19.265625 C 3.328125 -25.085938 4.703125 -29.765625 7.453125 -33.296875 C 10.210938 -36.835938 13.828125 -38.609375 18.296875 -38.609375 C 22.734375 -38.609375 26.25 -37.09375 28.84375 -34.0625 L 28.84375 -53.828125 L 35.328125 -53.828125 L 35.328125 0 L 29.359375 0 L 29.046875 -4.0625 C 26.453125 -0.882812 22.84375 0.703125 18.21875 0.703125 C 13.832031 0.703125 10.253906 -1.09375 7.484375 -4.6875 C 4.710938 -8.289062 3.328125 -12.988281 3.328125 -18.78125 Z M 9.8125 -18.53125 C 9.8125 -14.238281 10.695312 -10.875 12.46875 -8.4375 C 14.25 -6.007812 16.703125 -4.796875 19.828125 -4.796875 C 23.941406 -4.796875 26.945312 -6.644531 28.84375 -10.34375 L 28.84375 -27.75 C 26.90625 -31.320312 23.925781 -33.109375 19.90625 -33.109375 C 16.726562 -33.109375 14.25 -31.878906 12.46875 -29.421875 C 10.695312 -26.972656 9.8125 -23.34375 9.8125 -18.53125 Z M 9.8125 -18.53125 "/></g></g></g></svg>