<?xml version="1.0" ?><svg id="Icons" style="enable-background:new 0 0 32 32;" version="1.1" viewBox="0 0 32 32" xml:space="preserve" xmlns="http://www.w3.org/2000/svg" xmlns:xlink="http://www.w3.org/1999/xlink"><style type="text/css">
	.st0{fill:#FFFFFF;}
</style><path d="M14,24c0-5.5,4.5-10,10-10c1,0,2.1,0.2,3,0.5V9c0-0.6-0.4-1-1-1H11H9C7.9,8,7,7.1,7,6s0.9-2,2-2h17c0.6,0,1-0.4,1-1  s-0.4-1-1-1H9C6.8,2,5,3.8,5,6v20c0,2.2,1.8,4,4,4h2h5C14.8,28.3,14,26.3,14,24z"/><g><path d="M26,7H9C8.4,7,8,6.6,8,6s0.4-1,1-1h17c0.6,0,1,0.4,1,1S26.6,7,26,7z"/></g><path d="M31.7,21.9c-0.1-0.5-0.7-0.8-1.2-0.7c-0.7,0.2-1.2,0-1.3-0.2c-0.1-0.2,0-0.7,0.5-1.3c0.4-0.4,0.4-1,0-1.4  c-1-1-2.2-1.7-3.6-2.1c-0.5-0.1-1.1,0.2-1.2,0.7c-0.2,0.7-0.6,1-0.9,1s-0.6-0.4-0.9-1c-0.2-0.5-0.7-0.8-1.2-0.7  c-1.4,0.4-2.6,1.1-3.6,2.1c-0.4,0.4-0.4,1,0,1.4c0.5,0.5,0.6,1,0.5,1.3c-0.1,0.2-0.6,0.4-1.3,0.2c-0.5-0.1-1.1,0.2-1.2,0.7  C16.1,22.6,16,23.3,16,24s0.1,1.4,0.3,2.1c0.1,0.5,0.7,0.8,1.2,0.7c0.7-0.2,1.2,0,1.3,0.2c0.1,0.2,0,0.7-0.5,1.3  c-0.4,0.4-0.4,1,0,1.4c1,1,2.2,1.7,3.6,2.1c0.5,0.1,1.1-0.2,1.2-0.7c0.2-0.7,0.6-1,0.9-1s0.6,0.4,0.9,1c0.1,0.4,0.5,0.7,1,0.7  c0.1,0,0.2,0,0.3,0c1.4-0.4,2.6-1.1,3.6-2.1c0.4-0.4,0.4-1,0-1.4c-0.5-0.5-0.6-1-0.5-1.3c0.1-0.2,0.6-0.4,1.3-0.2  c0.5,0.1,1.1-0.2,1.2-0.7c0.2-0.7,0.3-1.4,0.3-2.1S31.9,22.6,31.7,21.9z M24,27c-1.7,0-3-1.3-3-3s1.3-3,3-3s3,1.3,3,3S25.7,27,24,27  z"/></svg>