<svg xmlns="http://www.w3.org/2000/svg" xmlns:xlink="http://www.w3.org/1999/xlink" width="800" zoomAndPan="magnify" viewBox="0 0 600 449.999984" height="600" preserveAspectRatio="xMidYMid meet" version="1.0"><defs><g/><clipPath id="b43287924b"><path d="M 141 172 L 458.894531 172 L 458.894531 400.375 L 141 400.375 Z M 141 172 " clip-rule="nonzero"/></clipPath></defs><rect x="-60" width="720" fill="#ffffff" y="-44.999998" height="539.99998" fill-opacity="1"/><rect x="-60" width="720" fill="#ffffff" y="-44.999998" height="539.99998" fill-opacity="1"/><path fill="#000000" d="M 231.832031 255.707031 C 221.792969 255.707031 213.625 263.875 213.625 273.914062 C 213.625 283.953125 221.792969 292.121094 231.832031 292.121094 C 241.871094 292.121094 250.039062 283.953125 250.039062 273.914062 C 250.039062 263.875 241.871094 255.707031 231.832031 255.707031 Z M 231.832031 285.640625 C 225.367188 285.640625 220.105469 280.378906 220.105469 273.914062 C 220.105469 267.449219 225.367188 262.1875 231.832031 262.1875 C 238.296875 262.1875 243.558594 267.449219 243.558594 273.914062 C 243.558594 280.378906 238.296875 285.640625 231.832031 285.640625 Z M 231.832031 285.640625 " fill-opacity="1" fill-rule="nonzero"/><path fill="#000000" d="M 211.007812 144.925781 C 211.363281 145.6875 212 146.28125 212.785156 146.585938 L 227.949219 152.421875 L 273.300781 197.773438 L 211.679688 253.539062 C 211.660156 253.554688 211.644531 253.578125 211.625 253.597656 C 211.605469 253.617188 211.585938 253.628906 211.566406 253.644531 C 200.390625 264.820312 200.390625 283.003906 211.566406 294.183594 C 217.152344 299.765625 224.492188 302.558594 231.832031 302.558594 C 239.171875 302.558594 246.507812 299.765625 252.097656 294.183594 C 252.117188 294.164062 252.128906 294.136719 252.148438 294.117188 C 252.167969 294.097656 252.191406 294.082031 252.210938 294.0625 L 296.6875 244.914062 L 350.621094 298.847656 C 355.761719 303.988281 362.597656 306.820312 369.871094 306.820312 C 377.144531 306.820312 383.984375 303.988281 389.125 298.84375 C 394.269531 293.703125 397.101562 286.867188 397.101562 279.59375 C 397.105469 272.316406 394.273438 265.480469 389.132812 260.339844 L 333.28125 204.488281 L 352.90625 182.808594 C 354.757812 183.097656 356.609375 183.238281 358.453125 183.238281 C 367.867188 183.238281 376.972656 179.539062 383.785156 172.726562 C 394 162.507812 397.097656 147.253906 391.679688 133.863281 C 391.597656 133.660156 391.496094 133.460938 391.371094 133.273438 C 391.128906 132.910156 390.820312 132.605469 390.46875 132.371094 C 390.378906 132.3125 390.285156 132.273438 390.191406 132.222656 C 390.097656 132.171875 390.011719 132.117188 389.914062 132.078125 C 389.816406 132.035156 389.710938 132.011719 389.609375 131.980469 C 389.511719 131.949219 389.414062 131.914062 389.3125 131.894531 C 389.222656 131.875 389.128906 131.871094 389.039062 131.863281 C 388.921875 131.847656 388.804688 131.828125 388.6875 131.828125 C 388.59375 131.828125 388.5 131.84375 388.40625 131.851562 C 388.289062 131.859375 388.175781 131.863281 388.0625 131.882812 C 387.648438 131.964844 387.246094 132.125 386.878906 132.367188 C 386.695312 132.488281 386.527344 132.625 386.375 132.78125 L 362.480469 156.671875 L 349.074219 143.261719 L 372.96875 119.371094 C 373.121094 119.21875 373.257812 119.050781 373.378906 118.867188 C 373.625 118.5 373.785156 118.097656 373.863281 117.679688 C 373.878906 117.589844 373.878906 117.5 373.890625 117.410156 C 373.902344 117.292969 373.917969 117.175781 373.917969 117.054688 C 373.917969 116.949219 373.898438 116.84375 373.886719 116.738281 C 373.878906 116.636719 373.875 116.535156 373.855469 116.433594 C 373.832031 116.332031 373.796875 116.238281 373.769531 116.144531 C 373.738281 116.039062 373.710938 115.933594 373.671875 115.832031 C 373.625 115.726562 373.566406 115.632812 373.511719 115.53125 C 373.464844 115.449219 373.429688 115.363281 373.375 115.28125 C 373.140625 114.925781 372.835938 114.617188 372.46875 114.375 C 372.285156 114.253906 372.09375 114.152344 371.898438 114.074219 C 358.503906 108.648438 343.242188 111.742188 333.023438 121.960938 C 324.878906 130.105469 321.1875 141.527344 322.945312 152.839844 L 288.792969 183.75 L 242.707031 137.664062 L 236.867188 122.5 C 236.566406 121.714844 235.96875 121.078125 235.207031 120.726562 L 217.082031 112.320312 C 215.851562 111.75 214.390625 112.007812 213.429688 112.96875 L 203.25 123.144531 C 202.289062 124.105469 202.03125 125.566406 202.601562 126.800781 Z M 247.488281 289.625 C 238.839844 298.242188 224.789062 298.234375 216.148438 289.597656 C 207.511719 280.960938 207.5 266.914062 216.113281 258.265625 L 277.890625 202.359375 L 296.410156 220.878906 L 286.824219 230.464844 C 285.558594 231.730469 285.558594 233.785156 286.824219 235.050781 L 292.101562 240.324219 Z M 384.550781 264.921875 C 388.46875 268.839844 390.625 274.046875 390.621094 279.589844 C 390.621094 285.132812 388.460938 290.34375 384.542969 294.261719 C 380.625 298.179688 375.414062 300.339844 369.871094 300.339844 C 364.328125 300.339844 359.121094 298.183594 355.203125 294.265625 L 293.695312 232.757812 L 323.042969 203.414062 Z M 328.621094 156.441406 C 328.652344 156.414062 328.671875 156.378906 328.703125 156.351562 C 328.769531 156.285156 328.828125 156.214844 328.890625 156.140625 C 328.972656 156.050781 329.050781 155.957031 329.117188 155.859375 C 329.164062 155.792969 329.203125 155.71875 329.242188 155.648438 C 329.304688 155.539062 329.371094 155.429688 329.417969 155.3125 C 329.453125 155.234375 329.476562 155.15625 329.5 155.078125 C 329.542969 154.960938 329.582031 154.84375 329.605469 154.726562 C 329.625 154.636719 329.632812 154.546875 329.644531 154.457031 C 329.660156 154.339844 329.675781 154.222656 329.679688 154.105469 C 329.683594 154.015625 329.671875 153.925781 329.667969 153.835938 C 329.660156 153.710938 329.652344 153.589844 329.628906 153.464844 C 329.625 153.433594 329.625 153.402344 329.621094 153.371094 C 327.578125 143.613281 330.566406 133.582031 337.605469 126.542969 C 344.761719 119.390625 354.933594 116.5 364.59375 118.582031 L 342.199219 140.972656 C 340.933594 142.238281 340.933594 144.289062 342.199219 145.554688 L 360.1875 163.546875 C 360.796875 164.152344 361.621094 164.496094 362.480469 164.496094 C 363.339844 164.496094 364.164062 164.152344 364.769531 163.546875 L 387.164062 141.15625 C 389.246094 150.8125 386.359375 160.984375 379.203125 168.140625 C 372.160156 175.183594 362.132812 178.167969 352.375 176.128906 C 352.339844 176.121094 352.308594 176.121094 352.273438 176.117188 C 352.164062 176.097656 352.050781 176.089844 351.9375 176.082031 C 351.832031 176.074219 351.730469 176.0625 351.628906 176.066406 C 351.53125 176.070312 351.433594 176.082031 351.335938 176.09375 C 351.222656 176.109375 351.113281 176.117188 351.003906 176.144531 C 350.914062 176.164062 350.824219 176.195312 350.734375 176.226562 C 350.625 176.257812 350.515625 176.292969 350.414062 176.335938 C 350.328125 176.375 350.25 176.421875 350.164062 176.46875 C 350.0625 176.523438 349.960938 176.578125 349.863281 176.644531 C 349.792969 176.695312 349.730469 176.75 349.664062 176.804688 C 349.5625 176.890625 349.460938 176.976562 349.371094 177.070312 C 349.351562 177.089844 349.328125 177.105469 349.308594 177.125 L 328.691406 199.898438 L 325.332031 196.539062 C 324.726562 195.929688 323.902344 195.589844 323.042969 195.589844 C 322.183594 195.589844 321.359375 195.929688 320.75 196.539062 L 311.167969 206.125 L 293.382812 188.339844 Z M 216.410156 119.152344 L 231.289062 126.050781 L 236.902344 140.628906 C 237.035156 140.972656 237.234375 141.292969 237.488281 141.582031 C 237.527344 141.628906 237.5625 141.679688 237.605469 141.722656 C 237.613281 141.734375 237.621094 141.746094 237.628906 141.753906 L 306.582031 210.707031 L 300.992188 216.296875 L 232.039062 147.347656 C 232.03125 147.339844 232.019531 147.335938 232.007812 147.324219 C 231.953125 147.273438 231.886719 147.226562 231.828125 147.179688 C 231.722656 147.085938 231.617188 146.992188 231.5 146.917969 C 231.488281 146.910156 231.476562 146.90625 231.464844 146.902344 C 231.289062 146.789062 231.105469 146.695312 230.917969 146.625 C 230.914062 146.621094 230.914062 146.621094 230.910156 146.621094 L 216.335938 141.007812 L 209.433594 126.128906 Z M 216.410156 119.152344 " fill-opacity="1" fill-rule="nonzero"/><path fill="#000000" d="M 314.34375 229.648438 C 313.078125 228.382812 311.023438 228.382812 309.761719 229.648438 C 308.496094 230.914062 308.496094 232.964844 309.761719 234.230469 L 363.566406 288.035156 C 364.195312 288.667969 365.027344 288.984375 365.855469 288.984375 C 366.683594 288.984375 367.515625 288.667969 368.144531 288.035156 C 369.410156 286.769531 369.410156 284.71875 368.144531 283.453125 Z M 314.34375 229.648438 " fill-opacity="1" fill-rule="nonzero"/><path fill="#000000" d="M 319.933594 219.476562 C 318.667969 220.742188 318.667969 222.792969 319.933594 224.058594 L 373.742188 277.863281 C 374.375 278.496094 375.203125 278.8125 376.03125 278.8125 C 376.863281 278.8125 377.691406 278.496094 378.324219 277.863281 C 379.589844 276.597656 379.589844 274.546875 378.324219 273.28125 L 324.515625 219.476562 C 323.253906 218.210938 321.199219 218.210938 319.933594 219.476562 Z M 319.933594 219.476562 " fill-opacity="1" fill-rule="nonzero"/><g clip-path="url(#b43287924b)"><path fill="#000000" d="M 455.488281 368.808594 L 444.773438 368.808594 L 444.773438 198.210938 C 444.773438 198.207031 444.773438 198.207031 444.773438 198.203125 C 444.773438 184.011719 433.226562 172.46875 419.03125 172.46875 L 391.554688 172.46875 C 389.765625 172.46875 388.316406 173.917969 388.316406 175.707031 C 388.316406 177.496094 389.765625 178.949219 391.554688 178.949219 L 419.03125 178.949219 C 429.652344 178.949219 438.292969 187.585938 438.292969 198.203125 L 438.292969 368.808594 L 161.496094 368.808594 L 161.496094 198.203125 C 161.496094 187.585938 170.136719 178.949219 180.757812 178.949219 L 239.921875 178.949219 C 241.710938 178.949219 243.160156 177.5 243.160156 175.710938 C 243.160156 173.921875 241.710938 172.46875 239.921875 172.46875 L 180.757812 172.46875 C 166.5625 172.46875 155.015625 184.011719 155.015625 198.203125 L 155.015625 368.808594 L 144.300781 368.808594 C 142.511719 368.808594 141.058594 370.257812 141.058594 372.046875 L 141.058594 386 C 141.058594 387.242188 141.769531 388.375 142.886719 388.917969 L 165.910156 400.082031 C 166.351562 400.296875 166.835938 400.40625 167.324219 400.40625 L 432.464844 400.40625 C 432.953125 400.40625 433.4375 400.296875 433.878906 400.082031 L 456.902344 388.917969 C 458.019531 388.375 458.730469 387.242188 458.730469 386 L 458.730469 372.046875 C 458.730469 370.257812 457.277344 368.808594 455.488281 368.808594 Z M 452.25 383.972656 L 431.71875 393.925781 L 168.070312 393.925781 L 147.539062 383.972656 L 147.539062 375.289062 L 452.25 375.289062 Z M 452.25 383.972656 " fill-opacity="1" fill-rule="nonzero"/></g><path fill="#000000" d="M 259.265625 196.671875 C 261.054688 196.671875 262.503906 195.222656 262.503906 193.433594 C 262.503906 191.644531 261.054688 190.191406 259.265625 190.191406 L 173.605469 190.191406 C 171.816406 190.191406 170.363281 191.644531 170.363281 193.433594 L 170.363281 358.09375 C 170.363281 359.882812 171.816406 361.332031 173.605469 361.332031 L 426.183594 361.332031 C 427.972656 361.332031 429.421875 359.882812 429.421875 358.09375 L 429.421875 193.433594 C 429.421875 191.644531 427.972656 190.191406 426.183594 190.191406 L 354.5 190.191406 C 352.710938 190.191406 351.261719 191.644531 351.261719 193.433594 C 351.261719 195.222656 352.710938 196.671875 354.5 196.671875 L 422.941406 196.671875 L 422.941406 354.851562 L 176.84375 354.851562 L 176.84375 196.671875 Z M 259.265625 196.671875 " fill-opacity="1" fill-rule="nonzero"/><path fill="#000000" d="M 262.214844 387.84375 L 337.570312 387.84375 C 339.363281 387.84375 340.8125 386.394531 340.8125 384.605469 C 340.8125 382.816406 339.363281 381.363281 337.570312 381.363281 L 262.214844 381.363281 C 260.425781 381.363281 258.976562 382.816406 258.976562 384.605469 C 258.976562 386.394531 260.425781 387.84375 262.214844 387.84375 Z M 262.214844 387.84375 " fill-opacity="1" fill-rule="nonzero"/><g fill="#000000" fill-opacity="1"><g transform="translate(5.752779, 66.375817)"><g><path d="M 44.65625 -16.640625 C 44.007812 -11.085938 41.960938 -6.804688 38.515625 -3.796875 C 35.066406 -0.785156 30.488281 0.71875 24.78125 0.71875 C 18.582031 0.71875 13.613281 -1.5 9.875 -5.9375 C 6.144531 -10.382812 4.28125 -16.328125 4.28125 -23.765625 L 4.28125 -28.8125 C 4.28125 -33.6875 5.148438 -37.96875 6.890625 -41.65625 C 8.628906 -45.351562 11.09375 -48.191406 14.28125 -50.171875 C 17.476562 -52.160156 21.179688 -53.15625 25.390625 -53.15625 C 30.953125 -53.15625 35.414062 -51.597656 38.78125 -48.484375 C 42.144531 -45.378906 44.101562 -41.078125 44.65625 -35.578125 L 37.703125 -35.578125 C 37.097656 -39.753906 35.796875 -42.78125 33.796875 -44.65625 C 31.796875 -46.53125 28.992188 -47.46875 25.390625 -47.46875 C 20.972656 -47.46875 17.507812 -45.832031 15 -42.5625 C 12.488281 -39.300781 11.234375 -34.65625 11.234375 -28.625 L 11.234375 -23.546875 C 11.234375 -17.859375 12.421875 -13.332031 14.796875 -9.96875 C 17.171875 -6.613281 20.5 -4.9375 24.78125 -4.9375 C 28.613281 -4.9375 31.554688 -5.804688 33.609375 -7.546875 C 35.660156 -9.285156 37.023438 -12.316406 37.703125 -16.640625 Z M 44.65625 -16.640625 "/></g></g><g transform="translate(53.755662, 66.375817)"><g><path d="M 3.28125 -19.84375 C 3.28125 -23.65625 4.03125 -27.085938 5.53125 -30.140625 C 7.03125 -33.191406 9.117188 -35.546875 11.796875 -37.203125 C 14.472656 -38.859375 17.523438 -39.6875 20.953125 -39.6875 C 26.265625 -39.6875 30.554688 -37.847656 33.828125 -34.171875 C 37.109375 -30.503906 38.75 -25.617188 38.75 -19.515625 L 38.75 -19.046875 C 38.75 -15.253906 38.019531 -11.851562 36.5625 -8.84375 C 35.113281 -5.832031 33.035156 -3.484375 30.328125 -1.796875 C 27.628906 -0.117188 24.53125 0.71875 21.03125 0.71875 C 15.75 0.71875 11.46875 -1.113281 8.1875 -4.78125 C 4.914062 -8.457031 3.28125 -13.320312 3.28125 -19.375 Z M 9.96875 -19.046875 C 9.96875 -14.722656 10.96875 -11.253906 12.96875 -8.640625 C 14.976562 -6.023438 17.664062 -4.71875 21.03125 -4.71875 C 24.414062 -4.71875 27.101562 -6.039062 29.09375 -8.6875 C 31.082031 -11.34375 32.078125 -15.0625 32.078125 -19.84375 C 32.078125 -24.113281 31.0625 -27.570312 29.03125 -30.21875 C 27.007812 -32.875 24.316406 -34.203125 20.953125 -34.203125 C 17.671875 -34.203125 15.019531 -32.894531 13 -30.28125 C 10.976562 -27.664062 9.96875 -23.921875 9.96875 -19.046875 Z M 9.96875 -19.046875 "/></g></g><g transform="translate(95.816702, 66.375817)"><g><path d="M 11.34375 -38.96875 L 11.5625 -34.0625 C 14.539062 -37.8125 18.429688 -39.6875 23.234375 -39.6875 C 31.460938 -39.6875 35.613281 -35.039062 35.6875 -25.75 L 35.6875 0 L 29.03125 0 L 29.03125 -25.78125 C 29 -28.59375 28.351562 -30.671875 27.09375 -32.015625 C 25.832031 -33.359375 23.867188 -34.03125 21.203125 -34.03125 C 19.046875 -34.03125 17.148438 -33.453125 15.515625 -32.296875 C 13.890625 -31.148438 12.617188 -29.640625 11.703125 -27.765625 L 11.703125 0 L 5.046875 0 L 5.046875 -38.96875 Z M 11.34375 -38.96875 "/></g></g><g transform="translate(136.509318, 66.375817)"><g><path d="M 8.3125 0 L 8.3125 -33.8125 L 2.15625 -33.8125 L 2.15625 -38.96875 L 8.3125 -38.96875 L 8.3125 -42.953125 C 8.3125 -47.140625 9.425781 -50.367188 11.65625 -52.640625 C 13.894531 -54.921875 17.054688 -56.0625 21.140625 -56.0625 C 22.671875 -56.0625 24.195312 -55.859375 25.71875 -55.453125 L 25.359375 -50.0625 C 24.222656 -50.269531 23.019531 -50.375 21.75 -50.375 C 19.59375 -50.375 17.925781 -49.742188 16.75 -48.484375 C 15.570312 -47.222656 14.984375 -45.414062 14.984375 -43.0625 L 14.984375 -38.96875 L 23.296875 -38.96875 L 23.296875 -33.8125 L 14.984375 -33.8125 L 14.984375 0 Z M 8.3125 0 "/></g></g><g transform="translate(162.113256, 66.375817)"><g><path d="M 12.28125 0 L 5.625 0 L 5.625 -38.96875 L 12.28125 -38.96875 Z M 5.078125 -49.296875 C 5.078125 -50.378906 5.40625 -51.289062 6.0625 -52.03125 C 6.726562 -52.78125 7.707031 -53.15625 9 -53.15625 C 10.300781 -53.15625 11.285156 -52.78125 11.953125 -52.03125 C 12.628906 -51.289062 12.96875 -50.378906 12.96875 -49.296875 C 12.96875 -48.210938 12.628906 -47.3125 11.953125 -46.59375 C 11.285156 -45.875 10.300781 -45.515625 9 -45.515625 C 7.707031 -45.515625 6.726562 -45.875 6.0625 -46.59375 C 5.40625 -47.3125 5.078125 -48.210938 5.078125 -49.296875 Z M 5.078125 -49.296875 "/></g></g><g transform="translate(180.010805, 66.375817)"><g><path d="M 3.453125 -19.8125 C 3.453125 -25.882812 4.859375 -30.710938 7.671875 -34.296875 C 10.484375 -37.890625 14.203125 -39.6875 18.828125 -39.6875 C 23.585938 -39.6875 27.300781 -38.003906 29.96875 -34.640625 L 30.28125 -38.96875 L 36.375 -38.96875 L 36.375 -0.9375 C 36.375 4.101562 34.878906 8.078125 31.890625 10.984375 C 28.898438 13.890625 24.882812 15.34375 19.84375 15.34375 C 17.03125 15.34375 14.28125 14.738281 11.59375 13.53125 C 8.90625 12.332031 6.851562 10.691406 5.4375 8.609375 L 8.890625 4.609375 C 11.753906 8.140625 15.25 9.90625 19.375 9.90625 C 22.613281 9.90625 25.140625 8.988281 26.953125 7.15625 C 28.765625 5.332031 29.671875 2.765625 29.671875 -0.546875 L 29.671875 -3.890625 C 27.003906 -0.816406 23.367188 0.71875 18.765625 0.71875 C 14.203125 0.71875 10.507812 -1.113281 7.6875 -4.78125 C 4.863281 -8.457031 3.453125 -13.46875 3.453125 -19.8125 Z M 10.15625 -19.046875 C 10.15625 -14.648438 11.054688 -11.195312 12.859375 -8.6875 C 14.660156 -6.1875 17.179688 -4.9375 20.421875 -4.9375 C 24.617188 -4.9375 27.703125 -6.84375 29.671875 -10.65625 L 29.671875 -28.453125 C 27.628906 -32.171875 24.566406 -34.03125 20.484375 -34.03125 C 17.242188 -34.03125 14.710938 -32.769531 12.890625 -30.25 C 11.066406 -27.726562 10.15625 -23.992188 10.15625 -19.046875 Z M 10.15625 -19.046875 "/></g></g><g transform="translate(221.387633, 66.375817)"><g><path d="M 29.09375 -3.859375 C 26.5 -0.804688 22.695312 0.71875 17.6875 0.71875 C 13.53125 0.71875 10.363281 -0.484375 8.1875 -2.890625 C 6.019531 -5.304688 4.921875 -8.878906 4.890625 -13.609375 L 4.890625 -38.96875 L 11.5625 -38.96875 L 11.5625 -13.796875 C 11.5625 -7.890625 13.960938 -4.9375 18.765625 -4.9375 C 23.847656 -4.9375 27.234375 -6.832031 28.921875 -10.625 L 28.921875 -38.96875 L 35.578125 -38.96875 L 35.578125 0 L 29.234375 0 Z M 29.09375 -3.859375 "/></g></g><g transform="translate(262.044238, 66.375817)"><g><path d="M 23.875 -32.984375 C 22.863281 -33.148438 21.769531 -33.234375 20.59375 -33.234375 C 16.226562 -33.234375 13.265625 -31.375 11.703125 -27.65625 L 11.703125 0 L 5.046875 0 L 5.046875 -38.96875 L 11.53125 -38.96875 L 11.625 -34.46875 C 13.8125 -37.945312 16.910156 -39.6875 20.921875 -39.6875 C 22.210938 -39.6875 23.195312 -39.519531 23.875 -39.1875 Z M 23.875 -32.984375 "/></g></g><g transform="translate(286.999976, 66.375817)"><g><path d="M 12.28125 0 L 5.625 0 L 5.625 -38.96875 L 12.28125 -38.96875 Z M 5.078125 -49.296875 C 5.078125 -50.378906 5.40625 -51.289062 6.0625 -52.03125 C 6.726562 -52.78125 7.707031 -53.15625 9 -53.15625 C 10.300781 -53.15625 11.285156 -52.78125 11.953125 -52.03125 C 12.628906 -51.289062 12.96875 -50.378906 12.96875 -49.296875 C 12.96875 -48.210938 12.628906 -47.3125 11.953125 -46.59375 C 11.285156 -45.875 10.300781 -45.515625 9 -45.515625 C 7.707031 -45.515625 6.726562 -45.875 6.0625 -46.59375 C 5.40625 -47.3125 5.078125 -48.210938 5.078125 -49.296875 Z M 5.078125 -49.296875 "/></g></g><g transform="translate(304.897524, 66.375817)"><g><path d="M 11.34375 -38.96875 L 11.5625 -34.0625 C 14.539062 -37.8125 18.429688 -39.6875 23.234375 -39.6875 C 31.460938 -39.6875 35.613281 -35.039062 35.6875 -25.75 L 35.6875 0 L 29.03125 0 L 29.03125 -25.78125 C 29 -28.59375 28.351562 -30.671875 27.09375 -32.015625 C 25.832031 -33.359375 23.867188 -34.03125 21.203125 -34.03125 C 19.046875 -34.03125 17.148438 -33.453125 15.515625 -32.296875 C 13.890625 -31.148438 12.617188 -29.640625 11.703125 -27.765625 L 11.703125 0 L 5.046875 0 L 5.046875 -38.96875 Z M 11.34375 -38.96875 "/></g></g><g transform="translate(345.59014, 66.375817)"><g><path d="M 3.453125 -19.8125 C 3.453125 -25.882812 4.859375 -30.710938 7.671875 -34.296875 C 10.484375 -37.890625 14.203125 -39.6875 18.828125 -39.6875 C 23.585938 -39.6875 27.300781 -38.003906 29.96875 -34.640625 L 30.28125 -38.96875 L 36.375 -38.96875 L 36.375 -0.9375 C 36.375 4.101562 34.878906 8.078125 31.890625 10.984375 C 28.898438 13.890625 24.882812 15.34375 19.84375 15.34375 C 17.03125 15.34375 14.28125 14.738281 11.59375 13.53125 C 8.90625 12.332031 6.851562 10.691406 5.4375 8.609375 L 8.890625 4.609375 C 11.753906 8.140625 15.25 9.90625 19.375 9.90625 C 22.613281 9.90625 25.140625 8.988281 26.953125 7.15625 C 28.765625 5.332031 29.671875 2.765625 29.671875 -0.546875 L 29.671875 -3.890625 C 27.003906 -0.816406 23.367188 0.71875 18.765625 0.71875 C 14.203125 0.71875 10.507812 -1.113281 7.6875 -4.78125 C 4.863281 -8.457031 3.453125 -13.46875 3.453125 -19.8125 Z M 10.15625 -19.046875 C 10.15625 -14.648438 11.054688 -11.195312 12.859375 -8.6875 C 14.660156 -6.1875 17.179688 -4.9375 20.421875 -4.9375 C 24.617188 -4.9375 27.703125 -6.84375 29.671875 -10.65625 L 29.671875 -28.453125 C 27.628906 -32.171875 24.566406 -34.03125 20.484375 -34.03125 C 17.242188 -34.03125 14.710938 -32.769531 12.890625 -30.25 C 11.066406 -27.726562 10.15625 -23.992188 10.15625 -19.046875 Z M 10.15625 -19.046875 "/></g></g><g transform="translate(386.966969, 66.375817)"><g/></g><g transform="translate(405.224629, 66.375817)"><g><path d="M 44.796875 -6.875 C 43.015625 -4.332031 40.535156 -2.429688 37.359375 -1.171875 C 34.179688 0.0859375 30.476562 0.71875 26.25 0.71875 C 21.976562 0.71875 18.1875 -0.28125 14.875 -2.28125 C 11.5625 -4.289062 9 -7.144531 7.1875 -10.84375 C 5.375 -14.539062 4.441406 -18.820312 4.390625 -23.6875 L 4.390625 -28.265625 C 4.390625 -36.160156 6.234375 -42.28125 9.921875 -46.625 C 13.609375 -50.976562 18.785156 -53.15625 25.453125 -53.15625 C 30.929688 -53.15625 35.335938 -51.753906 38.671875 -48.953125 C 42.015625 -46.160156 44.054688 -42.195312 44.796875 -37.0625 L 37.890625 -37.0625 C 36.585938 -44 32.457031 -47.46875 25.5 -47.46875 C 20.863281 -47.46875 17.347656 -45.835938 14.953125 -42.578125 C 12.566406 -39.328125 11.363281 -34.617188 11.34375 -28.453125 L 11.34375 -24.15625 C 11.34375 -18.28125 12.6875 -13.609375 15.375 -10.140625 C 18.0625 -6.671875 21.695312 -4.9375 26.28125 -4.9375 C 28.875 -4.9375 31.144531 -5.222656 33.09375 -5.796875 C 35.039062 -6.367188 36.648438 -7.34375 37.921875 -8.71875 L 37.921875 -20.484375 L 25.78125 -20.484375 L 25.78125 -26.109375 L 44.796875 -26.109375 Z M 44.796875 -6.875 "/></g></g><g transform="translate(455.460203, 66.375817)"><g><path d="M 29.09375 0 C 28.707031 -0.769531 28.394531 -2.140625 28.15625 -4.109375 C 25.0625 -0.890625 21.363281 0.71875 17.0625 0.71875 C 13.226562 0.71875 10.078125 -0.363281 7.609375 -2.53125 C 5.148438 -4.707031 3.921875 -7.460938 3.921875 -10.796875 C 3.921875 -14.859375 5.460938 -18.007812 8.546875 -20.25 C 11.640625 -22.5 15.984375 -23.625 21.578125 -23.625 L 28.046875 -23.625 L 28.046875 -26.6875 C 28.046875 -29.007812 27.347656 -30.859375 25.953125 -32.234375 C 24.566406 -33.617188 22.519531 -34.3125 19.8125 -34.3125 C 17.425781 -34.3125 15.429688 -33.710938 13.828125 -32.515625 C 12.222656 -31.316406 11.421875 -29.863281 11.421875 -28.15625 L 4.71875 -28.15625 C 4.71875 -30.101562 5.40625 -31.984375 6.78125 -33.796875 C 8.164062 -35.609375 10.039062 -37.039062 12.40625 -38.09375 C 14.769531 -39.15625 17.367188 -39.6875 20.203125 -39.6875 C 24.691406 -39.6875 28.207031 -38.5625 30.75 -36.3125 C 33.300781 -34.070312 34.625 -30.984375 34.71875 -27.046875 L 34.71875 -9.109375 C 34.71875 -5.535156 35.171875 -2.691406 36.078125 -0.578125 L 36.078125 0 Z M 18.046875 -5.078125 C 20.128906 -5.078125 22.109375 -5.613281 23.984375 -6.6875 C 25.859375 -7.769531 27.210938 -9.175781 28.046875 -10.90625 L 28.046875 -18.90625 L 22.828125 -18.90625 C 14.671875 -18.90625 10.59375 -16.515625 10.59375 -11.734375 C 10.59375 -9.648438 11.285156 -8.019531 12.671875 -6.84375 C 14.066406 -5.664062 15.859375 -5.078125 18.046875 -5.078125 Z M 18.046875 -5.078125 "/></g></g><g transform="translate(495.576641, 66.375817)"><g><path d="M 12.28125 0 L 5.625 0 L 5.625 -55.3125 L 12.28125 -55.3125 Z M 12.28125 0 "/></g></g><g transform="translate(513.474189, 66.375817)"><g><path d="M 29.09375 0 C 28.707031 -0.769531 28.394531 -2.140625 28.15625 -4.109375 C 25.0625 -0.890625 21.363281 0.71875 17.0625 0.71875 C 13.226562 0.71875 10.078125 -0.363281 7.609375 -2.53125 C 5.148438 -4.707031 3.921875 -7.460938 3.921875 -10.796875 C 3.921875 -14.859375 5.460938 -18.007812 8.546875 -20.25 C 11.640625 -22.5 15.984375 -23.625 21.578125 -23.625 L 28.046875 -23.625 L 28.046875 -26.6875 C 28.046875 -29.007812 27.347656 -30.859375 25.953125 -32.234375 C 24.566406 -33.617188 22.519531 -34.3125 19.8125 -34.3125 C 17.425781 -34.3125 15.429688 -33.710938 13.828125 -32.515625 C 12.222656 -31.316406 11.421875 -29.863281 11.421875 -28.15625 L 4.71875 -28.15625 C 4.71875 -30.101562 5.40625 -31.984375 6.78125 -33.796875 C 8.164062 -35.609375 10.039062 -37.039062 12.40625 -38.09375 C 14.769531 -39.15625 17.367188 -39.6875 20.203125 -39.6875 C 24.691406 -39.6875 28.207031 -38.5625 30.75 -36.3125 C 33.300781 -34.070312 34.625 -30.984375 34.71875 -27.046875 L 34.71875 -9.109375 C 34.71875 -5.535156 35.171875 -2.691406 36.078125 -0.578125 L 36.078125 0 Z M 18.046875 -5.078125 C 20.128906 -5.078125 22.109375 -5.613281 23.984375 -6.6875 C 25.859375 -7.769531 27.210938 -9.175781 28.046875 -10.90625 L 28.046875 -18.90625 L 22.828125 -18.90625 C 14.671875 -18.90625 10.59375 -16.515625 10.59375 -11.734375 C 10.59375 -9.648438 11.285156 -8.019531 12.671875 -6.84375 C 14.066406 -5.664062 15.859375 -5.078125 18.046875 -5.078125 Z M 18.046875 -5.078125 "/></g></g><g transform="translate(553.590627, 66.375817)"><g><path d="M 11.703125 -34.25 C 14.660156 -37.875 18.503906 -39.6875 23.234375 -39.6875 C 31.460938 -39.6875 35.613281 -35.039062 35.6875 -25.75 L 35.6875 0 L 29.03125 0 L 29.03125 -25.78125 C 29 -28.59375 28.351562 -30.671875 27.09375 -32.015625 C 25.832031 -33.359375 23.867188 -34.03125 21.203125 -34.03125 C 19.046875 -34.03125 17.148438 -33.453125 15.515625 -32.296875 C 13.890625 -31.148438 12.617188 -29.640625 11.703125 -27.765625 L 11.703125 0 L 5.046875 0 L 5.046875 -55.3125 L 11.703125 -55.3125 Z M 11.703125 -34.25 "/></g></g></g></svg>