<svg xmlns="http://www.w3.org/2000/svg" xmlns:xlink="http://www.w3.org/1999/xlink" width="800" zoomAndPan="magnify" viewBox="0 0 600 449.999984" height="600" preserveAspectRatio="xMidYMid meet" version="1.0"><defs><g/></defs><rect x="-60" width="720" fill="#ffffff" y="-44.999998" height="539.99998" fill-opacity="1"/><rect x="-60" width="720" fill="#ffffff" y="-44.999998" height="539.99998" fill-opacity="1"/><path fill="#000000" d="M 160.242188 151.421875 C 201.296875 111.457031 272.019531 109.003906 316.695312 144.421875 C 333.78125 157.792969 346.839844 177.6875 348.105469 199.730469 C 349.703125 221.320312 339.550781 242.402344 324.132812 257.113281 C 295.582031 284.542969 252.75 293.769531 214.558594 285.425781 C 202.964844 292.878906 191.5 300.59375 179.75 307.875 C 176.386719 310.703125 170.160156 309.160156 169.425781 304.585938 C 167.503906 291.136719 168.335938 277.410156 166.339844 263.988281 C 154.390625 252.003906 143.175781 238.382812 139.179688 221.472656 C 131.484375 196.417969 141.710938 169.015625 160.242188 151.421875 Z M 215.292969 135.976562 C 192.386719 141.132812 170.035156 153.949219 158.066406 174.675781 C 148.574219 190.425781 147.789062 210.496094 155.179688 227.203125 C 159.734375 239.464844 169.78125 248.058594 179.304688 256.425781 C 181.277344 267.648438 180.746094 279.179688 181.835938 290.527344 C 192.648438 283.953125 202.695312 276.070312 214.160156 270.582031 C 247.242188 280.414062 286.097656 273.414062 312.5 250.761719 C 327.050781 238.148438 336.445312 218.863281 334.472656 199.394531 C 333.183594 178.386719 319.257812 160.109375 301.894531 149.191406 C 276.398438 133.195312 244.378906 129.660156 215.292969 135.976562 Z M 215.292969 135.976562 " fill-opacity="1" fill-rule="nonzero"/><path fill="#000000" d="M 279.300781 255.707031 C 320.359375 215.742188 391.082031 213.289062 435.757812 248.703125 C 452.84375 262.074219 465.90625 281.96875 467.167969 304.011719 C 468.765625 325.597656 458.613281 346.683594 443.199219 361.394531 C 414.648438 388.824219 371.816406 398.050781 333.621094 389.707031 C 322.027344 397.160156 310.5625 404.871094 298.816406 412.15625 C 295.449219 414.984375 289.222656 413.441406 288.492188 408.867188 C 286.566406 395.417969 287.398438 381.691406 285.402344 368.269531 C 273.457031 356.285156 262.238281 342.664062 258.242188 325.753906 C 250.546875 300.703125 260.773438 273.304688 279.300781 255.707031 Z M 334.355469 240.261719 C 311.449219 245.417969 289.097656 258.234375 277.125 278.960938 C 267.632812 294.710938 266.847656 314.78125 274.238281 331.488281 C 278.796875 343.75 288.84375 352.34375 298.363281 360.710938 C 300.335938 371.933594 299.808594 383.460938 300.898438 394.8125 C 311.707031 388.238281 321.753906 380.355469 333.21875 374.867188 C 366.300781 384.699219 405.160156 377.699219 431.558594 355.046875 C 446.113281 342.433594 455.503906 323.148438 453.53125 303.679688 C 452.242188 282.671875 438.320312 264.394531 420.957031 253.476562 C 395.460938 237.484375 363.441406 233.945312 334.355469 240.261719 Z M 334.355469 240.261719 " fill-opacity="1" fill-rule="nonzero"/><path fill="#000000" d="M 206.382812 212.21875 C 200.460938 188.761719 218.835938 161.332031 243.71875 160.828125 C 267.96875 160.699219 286.625 186.585938 282.324219 209.640625 C 280.703125 220.636719 274.296875 230.292969 266.019531 237.445312 C 268.375 241.011719 271.816406 243.890625 273.484375 247.886719 C 273.484375 251.855469 270.699219 255.394531 266.472656 255.242188 C 260.246094 254.738281 257.230469 248.417969 253.816406 244.042969 C 232.304688 250.035156 210.5625 233.019531 206.382812 212.21875 Z M 235.71875 175.691406 C 214.378906 183.429688 213.042969 217.933594 232.304688 228.726562 C 237.316406 231.761719 243.261719 231.535156 248.882812 231.535156 C 245.265625 228.046875 239.367188 222.789062 244.328125 217.683594 C 251.035156 211.792969 257.414062 220.441406 261.339844 225.242188 C 269.160156 215.714844 271.617188 202.289062 267.261719 190.710938 C 263.183594 178.09375 248.101562 170.964844 235.71875 175.691406 Z M 235.71875 175.691406 " fill-opacity="1" fill-rule="nonzero"/><path fill="#000000" d="M 336.085938 263.738281 C 338.007812 257.496094 346.921875 258.074219 349.300781 263.6875 C 358.867188 286.667969 371.144531 308.433594 380.710938 331.4375 C 383.367188 337.097656 375.546875 342.660156 370.585938 339.09375 C 367.089844 334.871094 365.246094 329.589844 362.789062 324.761719 C 349.246094 324.6875 335.703125 324.714844 322.160156 324.6875 C 318.945312 331.058594 314.746094 345.496094 305.402344 337.984375 C 304.921875 336.894531 303.984375 334.699219 303.527344 333.585938 C 312.925781 309.71875 325.453125 287.117188 336.085938 263.738281 Z M 328.390625 311.257812 C 337.753906 311.183594 347.125 311.183594 356.488281 311.257812 C 351.828125 301.503906 347.246094 291.722656 342.4375 282.039062 C 337.601562 291.695312 333.148438 301.550781 328.390625 311.257812 Z M 328.390625 311.257812 " fill-opacity="1" fill-rule="nonzero"/><g fill="#000000" fill-opacity="1"><g transform="translate(211.214555, 65.992515)"><g><path d="M 34.796875 -23.015625 L 12.921875 -23.015625 L 12.921875 0 L 6.046875 0 L 6.046875 -52.125 L 38.34375 -52.125 L 38.34375 -46.46875 L 12.921875 -46.46875 L 12.921875 -28.640625 L 34.796875 -28.640625 Z M 34.796875 -23.015625 "/></g></g><g transform="translate(251.743768, 65.992515)"><g><path d="M 34.84375 -13.609375 L 13 -13.609375 L 8.09375 0 L 1 0 L 20.90625 -52.125 L 26.921875 -52.125 L 46.875 0 L 39.8125 0 Z M 15.078125 -19.265625 L 32.796875 -19.265625 L 23.921875 -43.640625 Z M 15.078125 -19.265625 "/></g></g><g transform="translate(299.576832, 65.992515)"><g><path d="M 45.859375 -24.390625 C 45.859375 -19.347656 45.054688 -15.003906 43.453125 -11.359375 C 41.859375 -7.722656 39.617188 -4.878906 36.734375 -2.828125 L 46.046875 4.46875 L 41.359375 8.8125 L 30.359375 0.078125 C 28.640625 0.503906 26.828125 0.71875 24.921875 0.71875 C 20.816406 0.71875 17.175781 -0.285156 14 -2.296875 C 10.820312 -4.316406 8.351562 -7.195312 6.59375 -10.9375 C 4.84375 -14.675781 3.945312 -19.003906 3.90625 -23.921875 L 3.90625 -27.671875 C 3.90625 -32.691406 4.773438 -37.117188 6.515625 -40.953125 C 8.253906 -44.796875 10.71875 -47.738281 13.90625 -49.78125 C 17.09375 -51.820312 20.738281 -52.84375 24.84375 -52.84375 C 29.050781 -52.84375 32.742188 -51.828125 35.921875 -49.796875 C 39.109375 -47.773438 41.5625 -44.859375 43.28125 -41.046875 C 45 -37.242188 45.859375 -32.800781 45.859375 -27.71875 Z M 38.984375 -27.75 C 38.984375 -33.882812 37.757812 -38.613281 35.3125 -41.9375 C 32.875 -45.269531 29.382812 -46.9375 24.84375 -46.9375 C 20.53125 -46.9375 17.125 -45.28125 14.625 -41.96875 C 12.132812 -38.664062 10.851562 -34.082031 10.78125 -28.21875 L 10.78125 -24.390625 C 10.78125 -18.421875 12.023438 -13.71875 14.515625 -10.28125 C 17.015625 -6.84375 20.484375 -5.125 24.921875 -5.125 C 29.359375 -5.125 32.796875 -6.738281 35.234375 -9.96875 C 37.671875 -13.207031 38.921875 -17.84375 38.984375 -23.875 Z M 38.984375 -27.75 "/></g></g><g transform="translate(349.987726, 65.992515)"><g><path d="M 27.5625 -10.28125 C 27.5625 -12.070312 26.890625 -13.460938 25.546875 -14.453125 C 24.203125 -15.441406 21.851562 -16.289062 18.5 -17 C 15.144531 -17.71875 12.484375 -18.578125 10.515625 -19.578125 C 8.546875 -20.585938 7.085938 -21.785156 6.140625 -23.171875 C 5.191406 -24.554688 4.71875 -26.203125 4.71875 -28.109375 C 4.71875 -31.285156 6.0625 -33.96875 8.75 -36.15625 C 11.4375 -38.351562 14.867188 -39.453125 19.046875 -39.453125 C 23.441406 -39.453125 27.003906 -38.316406 29.734375 -36.046875 C 32.460938 -33.785156 33.828125 -30.890625 33.828125 -27.359375 L 27.171875 -27.359375 C 27.171875 -29.171875 26.398438 -30.734375 24.859375 -32.046875 C 23.328125 -33.359375 21.390625 -34.015625 19.046875 -34.015625 C 16.640625 -34.015625 14.753906 -33.488281 13.390625 -32.4375 C 12.023438 -31.382812 11.34375 -30.015625 11.34375 -28.328125 C 11.34375 -26.722656 11.972656 -25.515625 13.234375 -24.703125 C 14.503906 -23.890625 16.789062 -23.113281 20.09375 -22.375 C 23.40625 -21.632812 26.085938 -20.75 28.140625 -19.71875 C 30.191406 -18.695312 31.710938 -17.460938 32.703125 -16.015625 C 33.691406 -14.578125 34.1875 -12.816406 34.1875 -10.734375 C 34.1875 -7.273438 32.800781 -4.5 30.03125 -2.40625 C 27.269531 -0.320312 23.679688 0.71875 19.265625 0.71875 C 16.160156 0.71875 13.414062 0.171875 11.03125 -0.921875 C 8.644531 -2.023438 6.773438 -3.5625 5.421875 -5.53125 C 4.078125 -7.5 3.40625 -9.628906 3.40625 -11.921875 L 10.03125 -11.921875 C 10.144531 -9.703125 11.03125 -7.941406 12.6875 -6.640625 C 14.351562 -5.335938 16.546875 -4.6875 19.265625 -4.6875 C 21.765625 -4.6875 23.769531 -5.191406 25.28125 -6.203125 C 26.800781 -7.222656 27.5625 -8.582031 27.5625 -10.28125 Z M 27.5625 -10.28125 "/></g></g></g></svg>